<?xml version="1.0" encoding="UTF-8"?>
<svg version="1.1" xmlns="http://www.w3.org/2000/svg" width="203" height="206">
<path d="M0 0 C66.99 0 133.98 0 203 0 C203 67.98 203 135.96 203 206 C136.01 206 69.02 206 0 206 C0 138.02 0 70.04 0 0 Z " fill="#FEFDFD" transform="translate(0,0)"/>
<path d="M0 0 C8.50484999 6.66412638 16.64476833 14.45283676 20 25 C20.21447731 27.69350073 20.32498534 30.24815841 20.3125 32.9375 C20.32861328 33.62779297 20.34472656 34.31808594 20.36132812 35.02929688 C20.36793536 41.99992973 17.72867335 47.00111675 13 52 C8.14906044 55.19721016 4.63460206 55.44719064 -1 55 C-4 54 -4 54 -6 53 C-6.0825 53.886875 -6.165 54.77375 -6.25 55.6875 C-7.13804565 59.60970162 -8.08518442 61.23466214 -11 64 C-15.8189537 66.61899658 -20.51941699 67.69752875 -26 67 C-28.52599435 65.85587315 -30.66494573 64.5249334 -33 63 C-33 62.34 -33 61.68 -33 61 C-33.66 61 -34.32 61 -35 61 C-35.061875 61.86625 -35.12375 62.7325 -35.1875 63.625 C-36.26379634 68.0957694 -37.7119977 69.78672503 -41 73 C-43.8125 73.875 -43.8125 73.875 -46 74 C-46.21398437 74.77601562 -46.42796875 75.55203125 -46.6484375 76.3515625 C-48.48648174 81.3132195 -51.03675465 85.7700254 -53.625 90.375 C-54.140625 91.30183594 -54.65625 92.22867188 -55.1875 93.18359375 C-56.45382811 95.45829425 -57.72475925 97.73028792 -59 100 C-61.875 100.125 -61.875 100.125 -65 100 C-65.66 99.34 -66.32 98.68 -67 98 C-66.60595135 94.62611254 -65.57456669 91.58914775 -64.37109375 88.42578125 C-64.05849609 87.59369141 -63.74589844 86.76160156 -63.42382812 85.90429688 C-63.09833984 85.04900391 -62.77285156 84.19371094 -62.4375 83.3125 C-61.78740268 81.60138279 -61.14012273 79.88919168 -60.49609375 78.17578125 C-60.20919678 77.42208252 -59.9222998 76.66838379 -59.62670898 75.8918457 C-58.89517894 74.01573489 -58.89517894 74.01573489 -59 72 C-59.763125 72.639375 -60.52625 73.27875 -61.3125 73.9375 C-65.5114346 77.15993818 -68.79710998 77.44092288 -74 77 C-82.22323429 72.97586407 -88.82710018 64.51342428 -92 56 C-95.63218872 45.34031571 -95.835715 31.74690806 -91.265625 21.3515625 C-89.10772789 17.34213639 -86.73579029 13.63846222 -84 10 C-83.59523438 9.40703125 -83.19046875 8.8140625 -82.7734375 8.203125 C-64.11894511 -16.74582801 -23.80948951 -16.82962428 0 0 Z " fill="#562F73" transform="translate(142,47)"/>
<path d="M0 0 C0.99 0.99 0.99 0.99 2 2 C1.34 2 0.68 2 0 2 C0.18129815 5.43793339 0.18129815 5.43793339 1 9 C2.91764174 10.3762794 2.91764174 10.3762794 5 11 C5.495 11.99 5.495 11.99 6 13 C5.67 13.66 5.34 14.32 5 15 C5.598125 15.185625 6.19625 15.37125 6.8125 15.5625 C10.04512098 17.68679379 10.70847663 20.44831073 12 24 C12 24.33 12 24.66 12 25 C9.69 25.33 7.38 25.66 5 26 C6.65 27.65 8.3 29.3 10 31 C9.03610436 33.40471882 8.39903357 34.74458411 6.1875 36.16015625 C-9.79225392 42.75180474 -9.79225392 42.75180474 -15 41 C-15 40.01 -15 39.02 -15 38 C-16.41805831 38.28482368 -17.83440379 38.57818144 -19.25 38.875 C-20.03890625 39.03742188 -20.8278125 39.19984375 -21.640625 39.3671875 C-23.96831144 39.99150075 -25.89031952 40.84838542 -28 42 C-28 41.01 -28 40.02 -28 39 C-34.57914609 39.2600453 -38.59433234 39.97717755 -44 44 C-46.875 44.75 -46.875 44.75 -49 45 C-49 42.69 -49 40.38 -49 38 C-49.53367187 38.2165625 -50.06734375 38.433125 -50.6171875 38.65625 C-56.46814763 40.84276797 -61.75662587 41.64415765 -68 41 C-69 40 -69 40 -69.375 36.625 C-69.98311639 33.09792496 -70.21784407 32.05637612 -73 30 C-71.125 24.25 -71.125 24.25 -70 22 C-71.65 21.67 -73.3 21.34 -75 21 C-73.66841883 13.90345564 -67.94423411 9.45055868 -62.26611328 5.47900391 C-42.97775428 -7.26080523 -21.31164039 -8.65048134 0 0 Z " fill="#E54F3A" transform="translate(131,41)"/>
<path d="M0 0 C1.290271 0.00563965 2.58054199 0.0112793 3.90991211 0.01708984 C13.27415052 0.13625926 21.80698509 0.84192859 30.875 3.3125 C32.07092773 3.62646729 32.07092773 3.62646729 33.29101562 3.94677734 C51.29309872 8.72456536 69.87632219 16.19746634 79.89941406 33.03320312 C81.01611955 35.02363194 82.08027327 37.03340214 83.125 39.0625 C83.4545166 39.69349609 83.7840332 40.32449219 84.12353516 40.97460938 C89.9771964 52.91547948 90.20025863 64.57846921 89.66259766 77.54541016 C89.31451965 86.61442439 89.67482397 93.59971723 94.875 101.3125 C95.28411621 101.92931641 95.69323242 102.54613281 96.11474609 103.18164062 C97.99319231 105.89107234 100.00275627 108.5022157 101.984375 111.13671875 C104.10362024 114.69652532 104.74363543 117.18667958 104.875 121.3125 C102.47271771 125.17071096 100.77133424 126.94043673 96.5625 128.6875 C95.675625 128.89375 94.78875 129.1 93.875 129.3125 C94.205 129.9725 94.535 130.6325 94.875 131.3125 C95.04296875 133.37109375 95.04296875 133.37109375 95.0625 135.75 C95.07667969 136.53246094 95.09085938 137.31492188 95.10546875 138.12109375 C94.875 140.3125 94.875 140.3125 92.875 143.3125 C92.6042058 145.36005929 92.6042058 145.36005929 92.5625 147.5625 C92.25891277 151.11962581 91.65107266 153.00436507 89.375 155.75 C86.43073823 159.35693037 86.4254681 162.41589537 86.1640625 166.94921875 C85.57571983 171.7593176 82.77347222 174.43706552 79.4375 177.6875 C71.77970811 181.18052788 62.75260884 179.34267837 54.57421875 178.5546875 C45.3322246 177.29884597 45.3322246 177.29884597 37.1875 180.8125 C36.424375 181.6375 35.66125 182.4625 34.875 183.3125 C35.1891513 180.38042124 35.86125278 179.32652929 37.95727539 177.1875 C41.70414422 174.77967198 43.9458988 174.90670804 48.37109375 175.0625 C49.08225845 175.07764648 49.79342316 175.09279297 50.52613831 175.10839844 C53.55122991 175.17343321 56.57410756 175.28599644 59.59790039 175.39453125 C61.81386153 175.46719355 64.02946596 175.51535338 66.24609375 175.5625 C66.92127548 175.59569336 67.59645721 175.62888672 68.292099 175.66308594 C73.29336401 175.7656816 76.03480383 174.44528207 79.875 171.3125 C81.65786936 167.74676129 81.17059415 163.51125621 81.30078125 159.57421875 C81.97341795 155.75345928 83.44053007 154.25132227 85.875 151.3125 C86.24449048 149.00981311 86.24449048 149.00981311 85.9375 146.75 C85.55332202 142.7196237 85.55332202 142.7196237 87.375 140.4140625 C89.87452841 136.91211905 88.88125039 133.22577313 88.58984375 129.08984375 C88.875 126.3125 88.875 126.3125 90.70703125 124.546875 C91.42246094 124.13953125 92.13789063 123.7321875 92.875 123.3125 C93.7825 122.755625 94.69 122.19875 95.625 121.625 C96.3675 121.191875 97.11 120.75875 97.875 120.3125 C97.26207562 117.16990124 96.22877344 115.08801153 94.37109375 112.4921875 C93.63149414 111.44224609 93.63149414 111.44224609 92.87695312 110.37109375 C92.10254883 109.29021484 92.10254883 109.29021484 91.3125 108.1875 C90.28616932 106.75038269 89.26381984 105.31041113 88.24609375 103.8671875 C87.79161865 103.23280762 87.33714355 102.59842773 86.86889648 101.94482422 C85.875 100.3125 85.875 100.3125 85.875 98.3125 C85.215 98.3125 84.555 98.3125 83.875 98.3125 C82.65993773 94.52237533 82.74019394 90.76366912 82.734375 86.828125 C82.71601092 85.31899576 82.69643743 83.80988085 82.67578125 82.30078125 C82.64716007 79.95141916 82.62500856 77.6029641 82.62451172 75.25341797 C82.59821737 57.64747408 78.85946992 42.15887552 66.8125 28.625 C54.99401396 17.62431099 38.26245257 12.64853308 22.875 9.3125 C22.02679688 9.10625 21.17859375 8.9 20.3046875 8.6875 C6.25199118 5.73766287 -11.58904151 5.14022318 -25.125 10.3125 C-25.94871094 10.62574219 -26.77242187 10.93898438 -27.62109375 11.26171875 C-44.16062126 18.13281967 -54.60025124 31.7702042 -61.671875 47.82421875 C-67.66322399 63.38828074 -66.73986177 81.49308645 -62.125 97.3125 C-61.83882812 98.32441406 -61.55265625 99.33632812 -61.2578125 100.37890625 C-60.57920595 102.70232582 -59.87284264 105.01062975 -59.125 107.3125 C-63.39068663 103.60426105 -64.47079655 98.55737522 -66.125 93.3125 C-66.42921875 92.37535156 -66.7334375 91.43820313 -67.046875 90.47265625 C-72.20861283 71.94396526 -70.33354994 51.241378 -61.11352539 34.33764648 C-52.24184642 19.1988003 -39.2900062 6.53381307 -22.00073242 1.72119141 C-14.66438066 0.12279925 -7.48935382 -0.03415118 0 0 Z " fill="#8F8F8F" transform="translate(98.125,14.6875)"/>
<path d="M0 0 C12.88006334 3.03045397 12.88006334 3.03045397 16.38232422 6.53271484 C15.72232422 6.53271484 15.06232422 6.53271484 14.38232422 6.53271484 C14.56362237 9.97064823 14.56362237 9.97064823 15.38232422 13.53271484 C17.29996596 14.90899424 17.29996596 14.90899424 19.38232422 15.53271484 C19.87732422 16.52271484 19.87732422 16.52271484 20.38232422 17.53271484 C20.05232422 18.19271484 19.72232422 18.85271484 19.38232422 19.53271484 C19.98044922 19.71833984 20.57857422 19.90396484 21.19482422 20.09521484 C24.4274452 22.21950863 25.09080085 24.98102558 26.38232422 28.53271484 C26.38232422 28.86271484 26.38232422 29.19271484 26.38232422 29.53271484 C24.07232422 29.86271484 21.76232422 30.19271484 19.38232422 30.53271484 C21.03232422 32.18271484 22.68232422 33.83271484 24.38232422 35.53271484 C23.41842858 37.93743366 22.78135779 39.27729896 20.56982422 40.69287109 C4.59007029 47.28451959 4.59007029 47.28451959 -0.61767578 45.53271484 C-0.61767578 44.54271484 -0.61767578 43.55271484 -0.61767578 42.53271484 C-4.57767578 42.53271484 -8.53767578 42.53271484 -12.61767578 42.53271484 C-13.74267578 36.78271484 -13.74267578 36.78271484 -12.61767578 34.53271484 C-13.19517578 34.45021484 -13.77267578 34.36771484 -14.36767578 34.28271484 C-17.23503157 33.32692958 -18.53568423 31.68186741 -20.61767578 29.53271484 C-21.60767578 29.20271484 -22.59767578 28.87271484 -23.61767578 28.53271484 C-23.61767578 27.54271484 -23.61767578 26.55271484 -23.61767578 25.53271484 C-21.96767578 25.20271484 -20.31767578 24.87271484 -18.61767578 24.53271484 C-18.61767578 25.19271484 -18.61767578 25.85271484 -18.61767578 26.53271484 C-16.96767578 26.86271484 -15.31767578 27.19271484 -13.61767578 27.53271484 C-13.61767578 26.87271484 -13.61767578 26.21271484 -13.61767578 25.53271484 C-12.29767578 25.53271484 -10.97767578 25.53271484 -9.61767578 25.53271484 C-9.28767578 23.88271484 -8.95767578 22.23271484 -8.61767578 20.53271484 C-9.27767578 20.20271484 -9.93767578 19.87271484 -10.61767578 19.53271484 C-10.61767578 18.54271484 -10.61767578 17.55271484 -10.61767578 16.53271484 C-11.23642578 16.45021484 -11.85517578 16.36771484 -12.49267578 16.28271484 C-15.29272997 15.29446042 -15.3588151 14.12911499 -16.61767578 11.53271484 C-18.65127059 10.26466918 -18.65127059 10.26466918 -20.61767578 9.53271484 C-20.61767578 8.87271484 -20.61767578 8.21271484 -20.61767578 7.53271484 C-17.64767578 6.87271484 -14.67767578 6.21271484 -11.61767578 5.53271484 C-11.61767578 3.88271484 -11.61767578 2.23271484 -11.61767578 0.53271484 C-16.56767578 0.86271484 -21.51767578 1.19271484 -26.61767578 1.53271484 C-19.84129991 -2.98486907 -7.77802156 -1.38846608 0 0 Z " fill="#F5E13C" transform="translate(116.61767578125,36.46728515625)"/>
<path d="M0 0 C1.98 0.66 3.96 1.32 6 2 C5.608125 3.258125 5.21625 4.51625 4.8125 5.8125 C4.21863809 7.98421425 4.21863809 7.98421425 4 10 C5.2912354 11.62485459 5.2912354 11.62485459 7 13 C7.6875 16.6875 7.6875 16.6875 8 20 C14.07071325 20.19443566 19.28482454 20.34468737 25 18 C25.66 18 26.32 18 27 18 C27.495 20.97 27.495 20.97 28 24 C29.29409592 23.54857119 30.58521059 23.08858979 31.875 22.625 C32.59429687 22.36976562 33.31359375 22.11453125 34.0546875 21.8515625 C36.18157994 21.06122217 36.18157994 21.06122217 38 19 C40.3828125 18.8046875 40.3828125 18.8046875 43.125 18.875 C44.03507812 18.89304687 44.94515625 18.91109375 45.8828125 18.9296875 C46.58148438 18.95289062 47.28015625 18.97609375 48 19 C48.495 19.99 48.495 19.99 49 21 C49.680625 20.505 50.36125 20.01 51.0625 19.5 C54.59465009 17.69634889 57.08636991 17.76978647 61 18 C61 18.99 61 19.98 61 21 C62.98 21.495 62.98 21.495 65 22 C63.824375 22.12375 62.64875 22.2475 61.4375 22.375 C57.48412433 22.85780163 53.82684755 23.89610167 50 25 C48.68 25 47.36 25 46 25 C46 26.98 46 28.96 46 31 C40.25 31.125 40.25 31.125 38 30 C38.495 33.96 38.495 33.96 39 38 C37.7625 37.773125 36.525 37.54625 35.25 37.3125 C31.7880083 36.83768771 31.7880083 36.83768771 28.6875 38.4375 C28.130625 38.953125 27.57375 39.46875 27 40 C26.01 40 25.02 40 24 40 C23.34 40.99 22.68 41.98 22 43 C19.8984375 43.37109375 19.8984375 43.37109375 17.375 43.4375 C12.35582792 43.81630544 7.94510097 44.69353156 4 48 C2.86521065 51.12133744 2.86521065 51.12133744 3 54 C-3.07643711 48.79162533 -6.41310353 40.71998326 -7.22216797 32.8347168 C-7.3398155 30.46889063 -7.37951051 28.11872872 -7.375 25.75 C-7.37411377 24.91388184 -7.37322754 24.07776367 -7.37231445 23.21630859 C-7.20178237 14.2776573 -4.66153535 7.5599685 0 0 Z " fill="#B2387D" transform="translate(55,61)"/>
<path d="M0 0 C9.62753294 0.98961425 17.93766333 8.75052168 24 16 C28.87225089 22.78217324 31.35179655 28.47302299 31.3125 36.9375 C31.32861328 37.62779297 31.34472656 38.31808594 31.36132812 39.02929688 C31.36793536 45.99992973 28.72867335 51.00111675 24 56 C19.14906044 59.19721016 15.63460206 59.44719064 10 59 C7 58 7 58 5 57 C4.67 58.98 4.34 60.96 4 63 C3.505 61.515 3.505 61.515 3 60 C2.34 60 1.68 60 1 60 C0.34 57.36 -0.32 54.72 -1 52 C0.98 51.505 0.98 51.505 3 51 C2.34 49.02 1.68 47.04 1 45 C-0.32 45 -1.64 45 -3 45 C-3 44.34 -3 43.68 -3 43 C-3.928125 42.566875 -3.928125 42.566875 -4.875 42.125 C-7 41 -7 41 -9 39 C-8.3709375 38.75765625 -7.741875 38.5153125 -7.09375 38.265625 C2.72223103 35.16388647 2.72223103 35.16388647 10 29 C9.01 28.67 8.02 28.34 7 28 C5.3125 25.4375 5.3125 25.4375 4 23 C7.465 22.505 7.465 22.505 11 22 C9.07608351 16.68588506 9.07608351 16.68588506 5 13 C4.66666667 11.66666667 4.33333333 10.33333333 4 9 C3.01 8.34 2.02 7.68 1 7 C0.3125 3.375 0.3125 3.375 0 0 Z " fill="#4B9640" transform="translate(131,43)"/>
<path d="M0 0 C3.36704285 -0.2295711 5.41370268 -0.33943529 8.375 1.375 C8.91125 1.91125 9.4475 2.4475 10 3 C10 3.66 10 4.32 10 5 C11.32 5 12.64 5 14 5 C16 8 16 8 16 11 C15.01 11.33 14.02 11.66 13 12 C13.33 14.64 13.66 17.28 14 20 C14.66 20 15.32 20 16 20 C16.3125 22.25 16.3125 22.25 16 25 C11.8235857 29.29925002 7.42016311 30.73598221 1.5625 31.375 C-2.93485389 30.90159433 -5.2410019 29.4548559 -9 27 C-9 26.01 -9 25.02 -9 24 C-10.32 23.67 -11.64 23.34 -13 23 C-13.33 24.32 -13.66 25.64 -14 27 C-15.84569406 23.91455672 -16.2284985 22.19405243 -15.4375 18.6875 C-14.22547816 13.90278633 -12.18814803 10.74607394 -9 7 C-8.34 7 -7.68 7 -7 7 C-7 6.34 -7 5.68 -7 5 C-5.5459375 4.5978125 -5.5459375 4.5978125 -4.0625 4.1875 C-3.051875 3.795625 -2.04125 3.40375 -1 3 C-0.67 2.01 -0.34 1.02 0 0 Z " fill="#3D3354" transform="translate(118,83)"/>
<path d="M0 0 C9.63057831 0.98992729 17.93344661 8.75165049 24 16 C29 22.87022901 29 22.87022901 29 27 C23.25 27.125 23.25 27.125 21 26 C20.90912109 26.93585938 20.90912109 26.93585938 20.81640625 27.890625 C20 30 20 30 17.71484375 31.046875 C16.79832031 31.27890625 15.88179687 31.5109375 14.9375 31.75 C13.55884766 32.11351562 13.55884766 32.11351562 12.15234375 32.484375 C11.44207031 32.65453125 10.73179687 32.8246875 10 33 C9.9071875 34.3921875 9.9071875 34.3921875 9.8125 35.8125 C9 39 9 39 6.5 40.75 C5.675 41.1625 4.85 41.575 4 42 C3.67 42.66 3.34 43.32 3 44 C-4.38461538 43.50769231 -4.38461538 43.50769231 -7.5 40.9375 C-8.2425 39.9784375 -8.2425 39.9784375 -9 39 C-8.3709375 38.75765625 -7.741875 38.5153125 -7.09375 38.265625 C2.72223103 35.16388647 2.72223103 35.16388647 10 29 C9.01 28.67 8.02 28.34 7 28 C5.3125 25.4375 5.3125 25.4375 4 23 C7.465 22.505 7.465 22.505 11 22 C9.07608351 16.68588506 9.07608351 16.68588506 5 13 C4.66666667 11.66666667 4.33333333 10.33333333 4 9 C3.01 8.34 2.02 7.68 1 7 C0.3125 3.375 0.3125 3.375 0 0 Z " fill="#71AE41" transform="translate(131,43)"/>
<path d="M0 0 C-0.99 0.495 -0.99 0.495 -2 1 C-1.81870185 4.43793339 -1.81870185 4.43793339 -1 8 C0.91764174 9.3762794 0.91764174 9.3762794 3 10 C3.33 10.66 3.66 11.32 4 12 C3.67 12.66 3.34 13.32 3 14 C3.598125 14.185625 4.19625 14.37125 4.8125 14.5625 C8.04512098 16.68679379 8.70847663 19.44831073 10 23 C10 23.33 10 23.66 10 24 C7.69 24.33 5.38 24.66 3 25 C4.65 26.65 6.3 28.3 8 30 C7.03610436 32.40471882 6.39903357 33.74458411 4.1875 35.16015625 C-11.79225392 41.75180474 -11.79225392 41.75180474 -17 40 C-17 39.01 -17 38.02 -17 37 C-18.98 37 -20.96 37 -23 37 C-20.70221327 35.6049152 -19.5207033 34.92561381 -16.8125 35.3125 C-15 36 -15 36 -14 37 C-12.65252916 37.23075082 -11.29622435 37.41153063 -9.9375 37.5625 C-8.638125 37.706875 -7.33875 37.85125 -6 38 C-6 36.35 -6 34.7 -6 33 C-6.928125 32.6596875 -6.928125 32.6596875 -7.875 32.3125 C-10.61410209 30.62070165 -11.05024472 29.00755839 -12 26 C-8.25 21.125 -8.25 21.125 -6 20 C-6 17.36 -6 14.72 -6 12 C-6.99 12 -7.98 12 -9 12 C-9 10.68 -9 9.36 -9 8 C-7.68 8.33 -6.36 8.66 -5 9 C-6.25541557 6.48916886 -7.50063488 6.12874554 -10 5 C-10 4.34 -10 3.68 -10 3 C-6.58168085 0.4606772 -4.24223102 -0.3636198 0 0 Z " fill="#B2CB3B" transform="translate(133,42)"/>
<path d="M0 0 C0.92901123 -0.00386719 1.85802246 -0.00773437 2.81518555 -0.01171875 C11.90985776 0.13731061 19.88946568 2.32354245 28.375 5.4375 C23.75 9.4375 23.75 9.4375 20.375 9.4375 C21.63041557 11.94833114 22.87563488 12.30875446 25.375 13.4375 C25.375 14.0975 25.375 14.7575 25.375 15.4375 C24.055 15.1075 22.735 14.7775 21.375 14.4375 C21.375 15.7575 21.375 17.0775 21.375 18.4375 C22.365 18.4375 23.355 18.4375 24.375 18.4375 C25.51654653 23.70617628 25.51654653 23.70617628 25.375 26.4375 C23 28.75 23 28.75 20.375 30.4375 C19.27841064 33.72726808 19.57546862 35.15053767 20.375 38.4375 C16.91 37.9425 16.91 37.9425 13.375 37.4375 C14.25 31.6875 14.25 31.6875 15.375 29.4375 C13.35677083 29.27473958 11.33854167 29.11197917 9.3203125 28.94921875 C7.375 28.4375 7.375 28.4375 5.375 25.4375 C8.345 24.1175 11.315 22.7975 14.375 21.4375 C12.395 21.1075 10.415 20.7775 8.375 20.4375 C7.715 18.4575 7.055 16.4775 6.375 14.4375 C9.04166667 15.10416667 11.70833333 15.77083333 14.375 16.4375 C14.045 15.1175 13.715 13.7975 13.375 12.4375 C14.365 12.1075 15.355 11.7775 16.375 11.4375 C16.705 10.7775 17.035 10.1175 17.375 9.4375 C14.735 9.7675 12.095 10.0975 9.375 10.4375 C5.375 3.6875 5.375 3.6875 5.375 1.4375 C-0.565 1.7675 -6.505 2.0975 -12.625 2.4375 C-8.43518334 -0.3557111 -4.93554967 0.01399784 0 0 Z " fill="#D8DC3B" transform="translate(102.625,35.5625)"/>
<path d="M0 0 C0 0.99 0 1.98 0 3 C1.32 3.33 2.64 3.66 4 4 C2.824375 4.12375 1.64875 4.2475 0.4375 4.375 C-3.51587567 4.85780163 -7.17315245 5.89610167 -11 7 C-12.32 7 -13.64 7 -15 7 C-15 8.98 -15 10.96 -15 13 C-20.75 13.125 -20.75 13.125 -23 12 C-22.505 15.96 -22.505 15.96 -22 20 C-23.2375 19.773125 -24.475 19.54625 -25.75 19.3125 C-29.2119917 18.83768771 -29.2119917 18.83768771 -32.3125 20.4375 C-32.869375 20.953125 -33.42625 21.46875 -34 22 C-34.99 22 -35.98 22 -37 22 C-37.66 22.99 -38.32 23.98 -39 25 C-41.1015625 25.37109375 -41.1015625 25.37109375 -43.625 25.4375 C-48.64417208 25.81630544 -53.05489903 26.69353156 -57 30 C-58.13478935 33.12133744 -58.13478935 33.12133744 -58 36 C-63.08189476 31.6440902 -66.16980516 25.64155871 -67 19 C-66.34 19 -65.68 19 -65 19 C-64.67 19.66 -64.34 20.32 -64 21 C-61.66842508 21.34541851 -59.33491639 21.67794257 -57 22 C-56.01 22.66 -55.02 23.32 -54 24 C-53.9071875 22.824375 -53.9071875 22.824375 -53.8125 21.625 C-53 19 -53 19 -50.6875 17.5 C-48 17 -48 17 -45.6875 18.375 C-45.130625 18.91125 -44.57375 19.4475 -44 20 C-44 18.68 -44 17.36 -44 16 C-43.05125 16.0825 -42.1025 16.165 -41.125 16.25 C-35.56275571 16.26135152 -29.54033374 14.12266626 -25.265625 10.55078125 C-23.7722566 8.90817022 -23.7722566 8.90817022 -23 6 C-21.02 6.33 -19.04 6.66 -17 7 C-17 5.35 -17 3.7 -17 2 C-16.01 2 -15.02 2 -14 2 C-14 2.66 -14 3.32 -14 4 C-12.989375 3.34 -11.97875 2.68 -10.9375 2 C-7.21937109 -0.15499716 -4.31084509 -0.35190572 0 0 Z " fill="#8E3D80" transform="translate(116,79)"/>
<path d="M0 0 C0 1.65 0 3.3 0 5 C-2.64 5.99 -5.28 6.98 -8 8 C-6.7625 8.8971875 -6.7625 8.8971875 -5.5 9.8125 C-4.675 10.534375 -3.85 11.25625 -3 12 C-3 12.99 -3 13.98 -3 15 C-1.68 15.33 -0.36 15.66 1 16 C1 16.99 1 17.98 1 19 C1.99 19.33 2.98 19.66 4 20 C3.01 22.475 3.01 22.475 2 25 C0.68 25 -0.64 25 -2 25 C-2 25.66 -2 26.32 -2 27 C-3.65 26.67 -5.3 26.34 -7 26 C-7 25.34 -7 24.68 -7 24 C-8.65 24.33 -10.3 24.66 -12 25 C-12 25.99 -12 26.98 -12 28 C-11.4225 28.0825 -10.845 28.165 -10.25 28.25 C-7.38264421 29.20578526 -6.08199155 30.85084743 -4 33 C-3.01 33.33 -2.02 33.66 -1 34 C-0.87625 35.670625 -0.87625 35.670625 -0.75 37.375 C-0.42126213 41.05753944 -0.42126213 41.05753944 2.0625 42.4375 C3.0215625 42.7159375 3.0215625 42.7159375 4 43 C2.02 43.99 0.04 44.98 -2 46 C-2 45.01 -2 44.02 -2 43 C-3.32 43 -4.64 43 -6 43 C-5.8453125 41.1128125 -5.8453125 41.1128125 -5.6875 39.1875 C-5.63971101 36.99952769 -5.63971101 36.99952769 -6 35 C-8.05338662 33.08228372 -8.05338662 33.08228372 -11 32 C-12.2784082 31.28419706 -13.54916442 30.55458126 -14.8125 29.8125 C-15.864375 29.214375 -16.91625 28.61625 -18 28 C-17 26 -17 26 -14 25 C-13.690625 24.01 -13.38125 23.02 -13.0625 22 C-12.5365625 20.515 -12.5365625 20.515 -12 19 C-10 18.3125 -10 18.3125 -8 18 C-7.34 17.01 -6.68 16.02 -6 15 C-7.36125 14.62875 -7.36125 14.62875 -8.75 14.25 C-12.20817171 12.91993396 -13.83928199 11.9917634 -16 9 C-16.039992 7.00039988 -16.04346799 4.99952758 -16 3 C-16.99 2.34 -17.98 1.68 -19 1 C-12.62641289 0.03794912 -6.44070471 -0.10655578 0 0 Z " fill="#EF8835" transform="translate(105,37)"/>
<path d="M0 0 C3.36704285 -0.2295711 5.41370268 -0.33943529 8.375 1.375 C8.91125 1.91125 9.4475 2.4475 10 3 C10 3.66 10 4.32 10 5 C11.32 5 12.64 5 14 5 C16 8 16 8 16 11 C15.01 11.33 14.02 11.66 13 12 C13.33 14.64 13.66 17.28 14 20 C14.66 20 15.32 20 16 20 C16 21.65 16 23.3 16 25 C15.34 25.33 14.68 25.66 14 26 C13.79375 25.38125 13.5875 24.7625 13.375 24.125 C11.44460937 21.14166903 9.34359163 20.9553119 6 20 C5.01 19.34 4.02 18.68 3 18 C3.33 17.4225 3.66 16.845 4 16.25 C5.27075898 13.80116138 5.27075898 13.80116138 5 10 C4.360625 9.71125 3.72125 9.4225 3.0625 9.125 C1 8 1 8 0 6 C-0.039992 4.00039988 -0.04346799 1.99952758 0 0 Z " fill="#3A594F" transform="translate(118,83)"/>
<path d="M0 0 C1.98 0.66 3.96 1.32 6 2 C5.07226562 4.97851562 5.07226562 4.97851562 4.14453125 7.95703125 C4.09683594 8.63121094 4.04914062 9.30539063 4 10 C4.97802979 11.02149778 5.98020394 12.02019594 7 13 C7.51171875 15.26171875 7.51171875 15.26171875 7.6875 17.6875 C7.78611328 18.89986328 7.78611328 18.89986328 7.88671875 20.13671875 C7.92410156 20.75160156 7.96148437 21.36648437 8 22 C5.69 22.33 3.38 22.66 1 23 C0 20 0 20 0 17 C-2.16874252 17.50603992 -3.99967627 17.99983813 -6 19 C-7.00306087 11.6442203 -3.47901358 6.3057121 0 0 Z " fill="#E33273" transform="translate(55,61)"/>
<path d="M0 0 C0 0.99 0 1.98 0 3 C1.32 3.33 2.64 3.66 4 4 C2.824375 4.12375 1.64875 4.2475 0.4375 4.375 C-3.51587567 4.85780163 -7.17315245 5.89610167 -11 7 C-12.32 7 -13.64 7 -15 7 C-15 8.98 -15 10.96 -15 13 C-20.75 13.125 -20.75 13.125 -23 12 C-22.67 14.64 -22.34 17.28 -22 20 C-25.95820859 19.43454163 -28.6659053 18.19097652 -32 16 C-31 14 -31 14 -28.625 12.6875 C-25.6795497 10.79399624 -24.58095325 9.07869843 -23 6 C-20.03 6.495 -20.03 6.495 -17 7 C-17 5.35 -17 3.7 -17 2 C-16.01 2 -15.02 2 -14 2 C-14 2.66 -14 3.32 -14 4 C-12.4840625 3.01 -12.4840625 3.01 -10.9375 2 C-7.21937109 -0.15499716 -4.31084509 -0.35190572 0 0 Z " fill="#8F376E" transform="translate(116,79)"/>
<path d="M0 0 C2 3 2 3 2 5 C1.34 5 0.68 5 0 5 C0.061875 6.093125 0.12375 7.18625 0.1875 8.3125 C0 12 0 12 -1.375 13.9375 C-3 15 -3 15 -5 15 C-5.66 16.98 -6.32 18.96 -7 21 C-8.32 20.67 -9.64 20.34 -11 20 C-11.33 21.32 -11.66 22.64 -12 24 C-13.84569406 20.91455672 -14.2284985 19.19405243 -13.4375 15.6875 C-12.22547816 10.90278633 -10.18814803 7.74607394 -7 4 C-6.34 4 -5.68 4 -5 4 C-5 3.34 -5 2.68 -5 2 C-3.35 1.34 -1.7 0.68 0 0 Z " fill="#422860" transform="translate(116,86)"/>
<path d="M0 0 C0 0.66 0 1.32 0 2 C1.65 2.33 3.3 2.66 5 3 C5 2.34 5 1.68 5 1 C5.66 1.33 6.32 1.66 7 2 C8 5 8 5 7 8 C10.3 8.66 13.6 9.32 17 10 C17.33 11.98 17.66 13.96 18 16 C13.82262526 17.59138085 10.46839215 18.21278058 6 18 C4.875 12.25 4.875 12.25 6 10 C5.4225 9.9175 4.845 9.835 4.25 9.75 C1.38264421 8.79421474 0.08199155 7.14915257 -2 5 C-2.99 4.67 -3.98 4.34 -5 4 C-5 3.01 -5 2.02 -5 1 C-2 0 -2 0 0 0 Z " fill="#FBD03B" transform="translate(98,61)"/>
<path d="M0 0 C0.92901123 -0.00386719 1.85802246 -0.00773437 2.81518555 -0.01171875 C11.90985776 0.13731061 19.88946568 2.32354245 28.375 5.4375 C22.19907086 10.62735642 17.1522102 10.57158983 9.375 10.4375 C5.375 3.6875 5.375 3.6875 5.375 1.4375 C-0.565 1.7675 -6.505 2.0975 -12.625 2.4375 C-8.43518334 -0.3557111 -4.93554967 0.01399784 0 0 Z " fill="#E2C948" transform="translate(102.625,35.5625)"/>
<path d="M0 0 C0 1.32 0 2.64 0 4 C-4.95 5.485 -4.95 5.485 -10 7 C-10.0928125 8.3921875 -10.0928125 8.3921875 -10.1875 9.8125 C-11 13 -11 13 -13.5 14.75 C-14.325 15.1625 -15.15 15.575 -16 16 C-16.33 16.66 -16.66 17.32 -17 18 C-24.38461538 17.50769231 -24.38461538 17.50769231 -27.5 14.9375 C-27.995 14.298125 -28.49 13.65875 -29 13 C-28.05640625 12.63648437 -28.05640625 12.63648437 -27.09375 12.265625 C-17.27776897 9.16388647 -17.27776897 9.16388647 -10 3 C-10.99 2.67 -11.98 2.34 -13 2 C-11.58461283 1.66127487 -10.16762037 1.32925376 -8.75 1 C-7.56664062 0.7215625 -7.56664062 0.7215625 -6.359375 0.4375 C-4 0 -4 0 0 0 Z " fill="#65A43B" transform="translate(151,69)"/>
<path d="M0 0 C0.33 0.66 0.66 1.32 1 2 C1.66 2 2.32 2 3 2 C3 2.99 3 3.98 3 5 C0.35261084 6.4606285 -0.89448334 7 -4 7 C-4 7.99 -4 8.98 -4 10 C-3.13375 10.12375 -3.13375 10.12375 -2.25 10.25 C0.61735579 11.20578526 1.91800845 12.85084743 4 15 C4.99 15.33 5.98 15.66 7 16 C7.12375 17.670625 7.12375 17.670625 7.25 19.375 C7.57873787 23.05753944 7.57873787 23.05753944 10.0625 24.4375 C10.701875 24.623125 11.34125 24.80875 12 25 C10.02 25.99 8.04 26.98 6 28 C6 27.01 6 26.02 6 25 C4.68 25 3.36 25 2 25 C2.1546875 23.1128125 2.1546875 23.1128125 2.3125 21.1875 C2.36028899 18.99952769 2.36028899 18.99952769 2 17 C-0.05338662 15.08228372 -0.05338662 15.08228372 -3 14 C-4.2784082 13.28419706 -5.54916442 12.55458126 -6.8125 11.8125 C-7.864375 11.214375 -8.91625 10.61625 -10 10 C-9 8 -9 8 -6 7 C-5.690625 6.01 -5.38125 5.02 -5.0625 4 C-4.711875 3.01 -4.36125 2.02 -4 1 C-1.875 0.125 -1.875 0.125 0 0 Z " fill="#ED7B33" transform="translate(97,55)"/>
<path d="M0 0 C0 1.98 0 3.96 0 6 C-0.66 5.34 -1.32 4.68 -2 4 C-2.86625 4.33 -3.7325 4.66 -4.625 5 C-7.95718275 5.98731341 -10.55159538 6.16420974 -14 6 C-14.226875 6.928125 -14.45375 7.85625 -14.6875 8.8125 C-16.21799908 12.52942635 -17.39794214 13.37907396 -21 15 C-21.66 15 -22.32 15 -23 15 C-23 15.66 -23 16.32 -23 17 C-23.99 16.67 -24.98 16.34 -26 16 C-25.34 16 -24.68 16 -24 16 C-24.33 13.36 -24.66 10.72 -25 8 C-22.36 8.33 -19.72 8.66 -17 9 C-17.33 7.02 -17.66 5.04 -18 3 C-17.319375 2.87625 -16.63875 2.7525 -15.9375 2.625 C-12.89168846 2.02301945 -12.89168846 2.02301945 -9.5625 0.9375 C-6.18533377 0.04877204 -3.46772756 -0.16915744 0 0 Z " fill="#79386E" transform="translate(118,83)"/>
<path d="M0 0 C-2.25 2.5 -2.25 2.5 -5 5 C-6.32 5 -7.64 5 -9 5 C-9.99 6.485 -9.99 6.485 -11 8 C-13.6015625 8.29296875 -13.6015625 8.29296875 -16.625 8.1875 C-18.12933594 8.14689453 -18.12933594 8.14689453 -19.6640625 8.10546875 C-20.43492188 8.07066406 -21.20578125 8.03585938 -22 8 C-21.67 6.35 -21.34 4.7 -21 3 C-20.01 2.67 -19.02 2.34 -18 2 C-17.34 2.33 -16.68 2.66 -16 3 C-16 1.68 -16 0.36 -16 -1 C-14.906875 -0.979375 -13.81375 -0.95875 -12.6875 -0.9375 C-2.91984733 -1.10305344 -2.91984733 -1.10305344 0 0 Z " fill="#7C2F79" transform="translate(88,96)"/>
<path d="M0 0 C0 2.31 0 4.62 0 7 C-3.3 6.67 -6.6 6.34 -10 6 C-10.66 7.32 -11.32 8.64 -12 10 C-14.02045442 9.39816251 -16.02111039 8.72693904 -18 8 C-18.33 7.34 -18.66 6.68 -19 6 C-19.99 5.34 -20.98 4.68 -22 4 C-18.86187334 2.14893912 -16.7408337 1.81977153 -13.125 2 C-8.42449723 2.11092632 -4.46009397 0 0 0 Z " fill="#C43C61" transform="translate(82,79)"/>
<path d="M0 0 C3.36704285 -0.2295711 5.41370268 -0.33943529 8.375 1.375 C8.91125 1.91125 9.4475 2.4475 10 3 C10 3.66 10 4.32 10 5 C11.32 5 12.64 5 14 5 C14.33 6.65 14.66 8.3 15 10 C13.41705218 10.05437607 11.83355744 10.09296271 10.25 10.125 C9.36828125 10.14820312 8.4865625 10.17140625 7.578125 10.1953125 C4.85093574 9.98870725 3.28684592 9.47305841 1 8 C-0.35439668 5.29120665 -0.06501451 2.99066732 0 0 Z " fill="#605857" transform="translate(118,83)"/>
<path d="M0 0 C1.33804688 0.04060547 1.33804688 0.04060547 2.703125 0.08203125 C3.37859375 0.11683594 4.0540625 0.15164062 4.75 0.1875 C4.42 1.1775 4.09 2.1675 3.75 3.1875 C3.75 2.5275 3.75 1.8675 3.75 1.1875 C2.76 1.1875 1.77 1.1875 0.75 1.1875 C0.75 2.8375 0.75 4.4875 0.75 6.1875 C-2.22 5.6925 -2.22 5.6925 -5.25 5.1875 C-5.3325 5.765 -5.415 6.3425 -5.5 6.9375 C-6.48210917 9.88382751 -7.87275066 11.21777912 -10.25 13.1875 C-12.5 13.9375 -12.5 13.9375 -14.25 14.1875 C-14.25 12.5375 -14.25 10.8875 -14.25 9.1875 C-14.91 8.8575 -15.57 8.5275 -16.25 8.1875 C-15.5625 6.25 -15.5625 6.25 -14.25 4.1875 C-12.59608154 3.79578247 -10.92654729 3.46692455 -9.25 3.1875 C-8.64414063 2.68734375 -8.03828125 2.1871875 -7.4140625 1.671875 C-4.73022562 -0.16902394 -3.21514881 -0.12691377 0 0 Z M-10.25 5.1875 C-11.24 5.8475 -12.23 6.5075 -13.25 7.1875 C-12.92 7.8475 -12.59 8.5075 -12.25 9.1875 C-11.26 8.8575 -10.27 8.5275 -9.25 8.1875 C-9.58 7.1975 -9.91 6.2075 -10.25 5.1875 Z " fill="#9F3C67" transform="translate(98.25,79.8125)"/>
<path d="M0 0 C1.32 0 2.64 0 4 0 C4 0.66 4 1.32 4 2 C4.99 2.33 5.98 2.66 7 3 C6.8125 5.375 6.8125 5.375 6 8 C1.91343412 10.60054192 -2.32368122 10.15851928 -7 10 C-7 9.01 -7 8.02 -7 7 C-5.36739286 5.62517293 -3.69774938 4.29352333 -2 3 C-1.34 2.01 -0.68 1.02 0 0 Z M10 -1 C10.33 -0.01 10.66 0.98 11 2 C9.68 2.33 8.36 2.66 7 3 C7.33 2.01 7.66 1.02 8 0 C8.66 -0.33 9.32 -0.66 10 -1 Z " fill="#9A3571" transform="translate(78,86)"/>
<path d="M0 0 C5.7097955 0.41778991 8.60957142 2.57546571 13 6 C12.505 6.515625 12.01 7.03125 11.5 7.5625 C9.50350759 10.80680017 9.78435615 13.26217334 10 17 C6.51786242 14.50000379 4.83961942 13.19809708 4 9 C3.01 8.34 2.02 7.68 1 7 C0.3125 3.375 0.3125 3.375 0 0 Z " fill="#85B93F" transform="translate(131,43)"/>
<path d="M0 0 C0.33 0 0.66 0 1 0 C1.03738281 1.06476563 1.07476562 2.12953125 1.11328125 3.2265625 C1.66861512 16.32242755 3.9416855 28.5084504 8 41 C1.11799904 35.01735144 -0.54602107 22.58067869 -2 14 C-2.140625 10.67578125 -2.140625 10.67578125 -2 8 C-1.67 7.67 -1.34 7.34 -1 7 C-0.63239269 4.67182036 -0.29758419 2.3381615 0 0 Z " fill="#A3A3A3" transform="translate(31,81)"/>
<path d="M0 0 C0.33 0.99 0.66 1.98 1 3 C1.99 2.67 2.98 2.34 4 2 C4.99 2.66 5.98 3.32 7 4 C6.67 7.63 6.34 11.26 6 15 C6.66 15.33 7.32 15.66 8 16 C6.68 15.67 5.36 15.34 4 15 C4 13.35 4 11.7 4 10 C1.83125748 10.50603992 0.00032373 10.99983813 -2 12 C-2.17835515 7.45194365 -1.99785435 4.1205746 0 0 Z " fill="#E13382" transform="translate(51,68)"/>
<path d="M0 0 C1.32 0.33 2.64 0.66 4 1 C4 1.99 4 2.98 4 4 C4.99 4.33 5.98 4.66 7 5 C6.34 6.65 5.68 8.3 5 10 C3.68 10 2.36 10 1 10 C1 10.66 1 11.32 1 12 C-0.65 11.67 -2.3 11.34 -4 11 C-4 10.01 -4 9.02 -4 8 C-3.34 8 -2.68 8 -2 8 C-2.04125 7.236875 -2.0825 6.47375 -2.125 5.6875 C-2 3 -2 3 0 0 Z " fill="#F19935" transform="translate(102,52)"/>
<path d="M0 0 C0 0.99 0 1.98 0 3 C1.32 3.33 2.64 3.66 4 4 C2.824375 4.12375 1.64875 4.2475 0.4375 4.375 C-3.54120426 4.86435935 -7.17766559 5.8055205 -11 7 C-11.66 6.34 -12.32 5.68 -13 5 C-8.49251112 0.34226149 -6.53321609 -0.12098548 0 0 Z " fill="#824765" transform="translate(116,79)"/>
<path d="M0 0 C0.77150391 0.00966797 1.54300781 0.01933594 2.33789062 0.02929688 C7.97246076 0.14248038 7.97246076 0.14248038 10.3125 1.3125 C10.3125 1.9725 10.3125 2.6325 10.3125 3.3125 C9.01054687 3.25449219 7.70859375 3.19648438 6.3671875 3.13671875 C4.64066099 3.08980227 2.91409552 3.04430414 1.1875 3 C0.3315625 2.95810547 -0.524375 2.91621094 -1.40625 2.87304688 C-5.89103563 2.786801 -8.77406226 2.88984355 -12.3046875 5.83203125 C-13.48417969 7.05986328 -13.48417969 7.05986328 -14.6875 8.3125 C-14.3786565 5.42996065 -13.69930835 4.32497458 -11.6796875 2.19140625 C-7.65762151 -0.33419916 -4.63984061 -0.17709315 0 0 Z " fill="#A0A0A0" transform="translate(147.6875,189.6875)"/>
<path d="M0 0 C0.99 0 1.98 0 3 0 C3.99 2.31 4.98 4.62 6 7 C-2.42857143 9.42857143 -2.42857143 9.42857143 -7 8 C-3.375 5 -3.375 5 0 5 C0 3.35 0 1.7 0 0 Z " fill="#E3D93C" transform="translate(105,37)"/>
<path d="M0 0 C3.3 0 6.6 0 10 0 C9.375 2.375 9.375 2.375 8 5 C4.875 6.3125 4.875 6.3125 2 7 C2 7.66 2 8.32 2 9 C1.01 8.67 0.02 8.34 -1 8 C-0.34 8 0.32 8 1 8 C0.67 5.36 0.34 2.72 0 0 Z " fill="#762D75" transform="translate(93,91)"/>
<path d="M0 0 C1.65 0 3.3 0 5 0 C5.0825 1.11375 5.165 2.2275 5.25 3.375 C5.57873787 7.05753944 5.57873787 7.05753944 8.0625 8.4375 C8.701875 8.623125 9.34125 8.80875 10 9 C8.02 9.99 6.04 10.98 4 12 C4 11.01 4 10.02 4 9 C2.68 9 1.36 9 0 9 C0 6.03 0 3.06 0 0 Z " fill="#EC8839" transform="translate(99,71)"/>
<path d="M0 0 C2.97 0.99 5.94 1.98 9 3 C4.375 7.875 4.375 7.875 1 9 C-0.4783226 6.04335481 -0.06032783 3.25770263 0 0 Z " fill="#E45E39" transform="translate(85,76)"/>
<path d="M0 0 C3.53586014 3.17320782 5.58578031 5.16743695 6 10 C1.545 10.495 1.545 10.495 -3 11 C-3 10.34 -3 9.68 -3 9 C-2.01 9 -1.02 9 0 9 C0 6.03 0 3.06 0 0 Z " fill="#A0C43C" transform="translate(137,56)"/>
<path d="M0 0 C2.3125 -0.25 2.3125 -0.25 5 0 C7.45922114 2.28356249 7.9612129 3.72849027 8.4375 7.0625 C8.71852745 10.1209616 8.71852745 10.1209616 11.0625 11.875 C11.701875 12.24625 12.34125 12.6175 13 13 C11.02 13 9.04 13 7 13 C5.875 7.25 5.875 7.25 7 5 C6.401875 4.87625 5.80375 4.7525 5.1875 4.625 C3 4 3 4 0 2 C0 1.34 0 0.68 0 0 Z " fill="#F5AD3B" transform="translate(97,66)"/>
<path d="M0 0 C0.33 0.99 0.66 1.98 1 3 C1.66 3.33 2.32 3.66 3 4 C2.01 4.33 1.02 4.66 0 5 C0 5.66 0 6.32 0 7 C0.99 7.33 1.98 7.66 3 8 C2.01 8 1.02 8 0 8 C0 9.32 0 10.64 0 12 C-0.66 12 -1.32 12 -2 12 C-2.66 9.36 -3.32 6.72 -4 4 C-2.68 3.67 -1.36 3.34 0 3 C0 2.01 0 1.02 0 0 Z " fill="#377E42" transform="translate(134,91)"/>
<path d="M0 0 C1.41823316 0.08006155 2.83603027 0.17654137 4.25 0.3125 C0.39376321 5.13279598 0.39376321 5.13279598 -2.86328125 5.64453125 C-4.82856214 5.6270776 -6.79166127 5.47846091 -8.75 5.3125 C-6.33348981 1.10987358 -4.73606739 -0.03729187 0 0 Z " fill="#AF386E" transform="translate(76.75,84.6875)"/>
<path d="M0 0 C1.37478516 0.01740234 1.37478516 0.01740234 2.77734375 0.03515625 C3.69644531 0.04417969 4.61554688 0.05320312 5.5625 0.0625 C6.27277344 0.07410156 6.98304687 0.08570312 7.71484375 0.09765625 C7.38484375 1.08765625 7.05484375 2.07765625 6.71484375 3.09765625 C6.71484375 2.43765625 6.71484375 1.77765625 6.71484375 1.09765625 C5.72484375 1.09765625 4.73484375 1.09765625 3.71484375 1.09765625 C3.71484375 2.74765625 3.71484375 4.39765625 3.71484375 6.09765625 C0.83046596 4.80465931 -1.15735046 3.43824262 -3.28515625 1.09765625 C-2.28515625 0.09765625 -2.28515625 0.09765625 0 0 Z " fill="#B84A55" transform="translate(95.28515625,79.90234375)"/>
<path d="M0 0 C3.63 0 7.26 0 11 0 C11.33 2.31 11.66 4.62 12 7 C11.01 7.495 11.01 7.495 10 8 C10 5.69 10 3.38 10 1 C9.40832031 1.22816406 8.81664063 1.45632812 8.20703125 1.69140625 C0.35852373 4.54657293 0.35852373 4.54657293 -4 3 C-2.68 2.67 -1.36 2.34 0 2 C0 1.34 0 0.68 0 0 Z " fill="#D6444E" transform="translate(72,78)"/>
<path d="M0 0 C0 1.98 0 3.96 0 6 C-0.66 5.34 -1.32 4.68 -2 4 C-3.32 4 -4.64 4 -6 4 C-6.99 3.67 -7.98 3.34 -9 3 C-6.38997624 -0.48003168 -4.1689578 -0.27793052 0 0 Z " fill="#5E3762" transform="translate(118,83)"/>
<path d="M0 0 C0.33 1.32 0.66 2.64 1 4 C0.01 4.33 -0.98 4.66 -2 5 C-3.70586575 6.62652316 -5.3777546 8.29006566 -7 10 C-7.33 9.01 -7.66 8.02 -8 7 C-3.89473684 1.29824561 -3.89473684 1.29824561 0 0 Z " fill="#CD423E" transform="translate(64,52)"/>
<path d="M0 0 C-0.33 1.65 -0.66 3.3 -1 5 C-1.66 5 -2.32 5 -3 5 C-3 5.66 -3 6.32 -3 7 C-5.375 7.1875 -5.375 7.1875 -8 7 C-8.66 6.01 -9.32 5.02 -10 4 C-8.71086513 3.32845067 -7.41859796 2.66291141 -6.125 2 C-5.40570313 1.62875 -4.68640625 1.2575 -3.9453125 0.875 C-2 0 -2 0 0 0 Z " fill="#F0E43E" transform="translate(120,45)"/>
<path d="M0 0 C0.33 1.98 0.66 3.96 1 6 C-0.98 6 -2.96 6 -5 6 C-5 4.35 -5 2.7 -5 1 C-3 0 -3 0 0 0 Z " fill="#E23E56" transform="translate(62,77)"/>
<path d="M0 0 C1.32 0.66 2.64 1.32 4 2 C3.34 2 2.68 2 2 2 C1.896875 2.928125 1.79375 3.85625 1.6875 4.8125 C0.9929808 8.03254358 0.52259061 9.02579865 -2 11 C-2.28571429 3.57142857 -2.28571429 3.57142857 0 0 Z " fill="#4C3C69" transform="translate(105,106)"/>
<path d="M0 0 C2.59521914 1.13540837 4.11664483 2.78985678 6 4.875 C3.50907189 6.12046405 2.58919267 5.6517578 0 4.875 C0 3.885 0 2.895 0 1.875 C-1.98 1.875 -3.96 1.875 -6 1.875 C-3.86640881 0.57960535 -2.52392246 -0.15774515 0 0 Z " fill="#B6A451" transform="translate(116,77.125)"/>
<path d="M0 0 C0.928125 0.20625 1.85625 0.4125 2.8125 0.625 C2.8125 2.275 2.8125 3.925 2.8125 5.625 C1.8225 6.12 1.8225 6.12 0.8125 6.625 C0.4721875 5.6659375 0.4721875 5.6659375 0.125 4.6875 C-1.04000896 2.35306339 -1.04000896 2.35306339 -3.8125 1.875 C-4.59625 1.7925 -5.38 1.71 -6.1875 1.625 C-3.1875 -0.375 -3.1875 -0.375 0 0 Z " fill="#3B5158" transform="translate(131.1875,102.375)"/>
<path d="M0 0 C0 0.66 0 1.32 0 2 C0.99 2.33 1.98 2.66 3 3 C2.34 3.66 1.68 4.32 1 5 C-2.125 4.625 -2.125 4.625 -5 4 C-5 3.01 -5 2.02 -5 1 C-2 0 -2 0 0 0 Z " fill="#FAC03C" transform="translate(98,61)"/>
<path d="M0 0 C2.5 2.3125 2.5 2.3125 5 5 C5 5.99 5 6.98 5 8 C3.68 8.33 2.36 8.66 1 9 C0.67 6.03 0.34 3.06 0 0 Z " fill="#E43664" transform="translate(57,69)"/>
<path d="M0 0 C2.475 0.99 2.475 0.99 5 2 C4.34 3.32 3.68 4.64 3 6 C2.01 6 1.02 6 0 6 C0 4.02 0 2.04 0 0 Z " fill="#9D4283" transform="translate(48,90)"/>
<path d="M0 0 C-2 2 -2 2 -5 3 C-5.66 3.66 -6.32 4.32 -7 5 C-7.66 4.67 -8.32 4.34 -9 4 C-8.3125 2.0625 -8.3125 2.0625 -7 0 C-4.12060581 -0.93580311 -2.74490212 -1.37245106 0 0 Z " fill="#AB3E5E" transform="translate(91,84)"/>
<path d="M0 0 C0.99 0 1.98 0 3 0 C2.67 2.64 2.34 5.28 2 8 C2.66 8.33 3.32 8.66 4 9 C2.68 8.67 1.36 8.34 0 8 C0 5.36 0 2.72 0 0 Z " fill="#D13572" transform="translate(55,75)"/>
<path d="M0 0 C0.99 0 1.98 0 3 0 C3 0.66 3 1.32 3 2 C3.66 2.33 4.32 2.66 5 3 C3.68 3.99 2.36 4.98 1 6 C0.34 5.67 -0.32 5.34 -1 5 C-0.67 3.35 -0.34 1.7 0 0 Z " fill="#954165" transform="translate(99,81)"/>
<path d="M0 0 C2.31 0 4.62 0 7 0 C7 0.99 7 1.98 7 3 C8.32 3.33 9.64 3.66 11 4 C6.44262737 3.56179109 3.42346555 3.14958831 0 0 Z " fill="#9A7D61" transform="translate(109,79)"/>
<path d="M0 0 C0 0.66 0 1.32 0 2 C-2.95664519 3.4783226 -5.74229737 3.06032783 -9 3 C-9 2.34 -9 1.68 -9 1 C-5.94152152 0.45627049 -3.11227195 0 0 0 Z " fill="#77AE3D" transform="translate(150,71)"/>
<path d="M0 0 C2.31 0.66 4.62 1.32 7 2 C7 3.98 7 5.96 7 8 C6.5875 7.38125 6.175 6.7625 5.75 6.125 C3.94426121 3.93231719 2.5909466 3.07211583 0 2 C0 1.34 0 0.68 0 0 Z " fill="#F4C53E" transform="translate(96,44)"/>
<path d="M0 0 C2.97 0.495 2.97 0.495 6 1 C5.01 1.33 4.02 1.66 3 2 C3 3.65 3 5.3 3 7 C2.34 7 1.68 7 1 7 C0.67 4.69 0.34 2.38 0 0 Z " fill="#91BE43" transform="translate(131,43)"/>
<path d="M0 0 C-1.98 0.99 -3.96 1.98 -6 3 C-6 2.01 -6 1.02 -6 0 C-7.32 -0.33 -8.64 -0.66 -10 -1 C-5.92224809 -1.9267618 -3.57818963 -2.33958553 0 0 Z " fill="#E4954A" transform="translate(109,80)"/>
<path d="M0 0 C1.98 0.495 1.98 0.495 4 1 C2.02 3.97 2.02 3.97 0 7 C-1.04449911 3.86650268 -0.93423645 3.01031744 0 0 Z " fill="#CBD63A" transform="translate(121,62)"/>
</svg>
