<?xml version="1.0" encoding="UTF-8"?>
<svg version="1.1" xmlns="http://www.w3.org/2000/svg" width="180" height="180">
<path d="M0 0 C59.4 0 118.8 0 180 0 C180 59.4 180 118.8 180 180 C120.6 180 61.2 180 0 180 C0 120.6 0 61.2 0 0 Z " fill="#FDFDFD" transform="translate(0,0)"/>
<path d="M0 0 C0.66 2.64 1.32 5.28 2 8 C2.66 7.01 3.32 6.02 4 5 C4.04125 6.175625 4.0825 7.35125 4.125 8.5625 C4.64972478 13.04651172 6.51215279 15.30677001 9.625 18.45703125 C13.22490338 22.49669556 12.42396472 28.74681818 12.71875 33.84765625 C12.79722339 36.89941325 12.79722339 36.89941325 14 39 C14.26591862 42.52342171 14.22257866 45.31636554 13.125 48.6875 C9.83099945 52.27214766 5.59353789 53.58963416 1 55 C0.34 55 -0.32 55 -1 55 C-1 55.66 -1 56.32 -1 57 C-0.41863281 57.24878906 0.16273437 57.49757812 0.76171875 57.75390625 C3.31739197 59.17669815 4.87821677 60.75074191 6.8125 62.9375 C7.43769531 63.62714844 8.06289062 64.31679687 8.70703125 65.02734375 C9.13371094 65.67832031 9.56039062 66.32929687 10 67 C8.65289578 71.04131267 6.61571666 71.90288434 3 74 C2.01 74 1.02 74 0 74 C-0.33 72.35 -0.66 70.7 -1 69 C-1.54817383 69.16298584 -2.09634766 69.32597168 -2.66113281 69.49389648 C-5.31441423 70.06803556 -7.70742678 70.11273652 -10.421875 70.09765625 C-11.95908203 70.09282227 -11.95908203 70.09282227 -13.52734375 70.08789062 C-14.59082031 70.07951172 -15.65429688 70.07113281 -16.75 70.0625 C-17.82894531 70.05798828 -18.90789062 70.05347656 -20.01953125 70.04882812 C-22.67974383 70.03705727 -25.33984365 70.02061399 -28 70 C-28.33 71.32 -28.66 72.64 -29 74 C-32.77545388 72.90931332 -35.47043472 72.0916909 -38 69 C-36.54718935 63.67302761 -32.91888622 60.63597198 -29 57 C-31.48193345 54.91517591 -33.49596913 53.80857332 -36.5625 52.625 C-40.37951443 50.82059318 -41.46677752 49.87815097 -43 46 C-43.41291057 41.87089433 -43.33909307 40.5086396 -41 37 C-40.65772581 33.51226929 -40.55776441 30.04497404 -40.44140625 26.54296875 C-39.58410468 19.66179595 -36.18491041 15.37379904 -31.08203125 10.96484375 C-25.21365953 7.22366381 -18.50040328 5.44339687 -11.85009766 3.53735352 C-10.22143075 3.06431368 -8.60894074 2.53631358 -7 2 C-7 2.66 -7 3.32 -7 4 C-6.34 4 -5.68 4 -5 4 C-5 3.34 -5 2.68 -5 2 C-2 0 -2 0 0 0 Z " fill="#F2B99D" transform="translate(101,19)"/>
<path d="M0 0 C0.17254418 2.08285479 0.33763587 4.16632693 0.5 6.25 C0.5928125 7.41015625 0.685625 8.5703125 0.78125 9.765625 C0.99685985 13.07980968 0.99928477 16.36684353 0.96875 19.6875 C0.94063494 26.08367671 1.4184144 32.38399543 2 38.75 C2.09539062 39.84054688 2.19078125 40.93109375 2.2890625 42.0546875 C2.52142068 44.70357074 2.75844982 47.35194196 3 50 C0.35541621 51.32229189 -1.67761301 51.09677194 -4.625 51.0625 C-5.62789062 51.05347656 -6.63078125 51.04445312 -7.6640625 51.03515625 C-8.43492188 51.02355469 -9.20578125 51.01195312 -10 51 C-10.07347656 49.54980469 -10.07347656 49.54980469 -10.1484375 48.0703125 C-10.53801596 41.28627374 -11.00413276 34.77842574 -12.59765625 28.1484375 C-13.05095363 25.72791752 -13.06466012 23.45708459 -13 21 C-14.32 21 -15.64 21 -17 21 C-18.61017136 31.00494828 -19.50100262 40.88873728 -20 51 C-24.18001995 51.08196118 -27.92212105 50.89445704 -32 50 C-31.88258093 43.34296425 -31.75774651 36.68609757 -31.62768555 30.02929688 C-31.5842977 27.76337866 -31.54262551 25.49742693 -31.50268555 23.23144531 C-31.44507615 19.97971482 -31.38135498 16.72815364 -31.31640625 13.4765625 C-31.29969376 12.45881744 -31.28298126 11.44107239 -31.26576233 10.39248657 C-31.24581711 9.45166229 -31.22587189 8.51083801 -31.20532227 7.54150391 C-31.18200584 6.29574081 -31.18200584 6.29574081 -31.15821838 5.02481079 C-31 3 -31 3 -30 1 C-25.75004877 0.83207423 -21.50003166 0.66587676 -17.25 0.5 C-16.0434375 0.45230469 -14.836875 0.40460938 -13.59375 0.35546875 C-11.85351562 0.28779297 -11.85351562 0.28779297 -10.078125 0.21875 C-8.47565918 0.1559082 -8.47565918 0.1559082 -6.84082031 0.09179688 C-4.56153124 0.01814505 -2.28047873 0 0 0 Z " fill="#1F4560" transform="translate(102,97)"/>
<path d="M0 0 C0.66 2.64 1.32 5.28 2 8 C2.66 7.01 3.32 6.02 4 5 C4.04125 6.175625 4.0825 7.35125 4.125 8.5625 C4.64972478 13.04651172 6.51215279 15.30677001 9.625 18.45703125 C12.94264531 22.1799571 12.31789138 27.2084645 12.30078125 31.90234375 C11.86656888 36.37416728 10.33825216 39.20034024 8 43 C7.67 43 7.34 43 7 43 C6.94392578 41.26363281 6.94392578 41.26363281 6.88671875 39.4921875 C6.82102575 37.95309439 6.75457958 36.4140333 6.6875 34.875 C6.65366211 33.73417969 6.65366211 33.73417969 6.61914062 32.5703125 C6.38880247 27.71227149 5.65356849 24.21716263 3 20 C0.80581563 18.32221688 0.80581563 18.32221688 -2 18 C-4.34013344 18.64238957 -6.67251306 19.31320058 -9 20 C-17.80952381 20.5952381 -17.80952381 20.5952381 -21 19 C-24.38432759 18.58727712 -27.62274903 18.50350592 -31 19 C-35.69910737 23.24065787 -36.14141173 27.61179788 -36.5625 33.6875 C-36.64628906 34.86699219 -36.73007813 36.04648437 -36.81640625 37.26171875 C-36.87699219 38.16535156 -36.93757813 39.06898437 -37 40 C-40.27182461 36.72817539 -40.18311759 33.61845979 -40.25 29.1875 C-40.13726612 21.96385956 -38.41443187 18.19162305 -33.4375 13 C-27.26026834 7.66278989 -19.5568651 5.74618928 -11.85009766 3.53735352 C-10.22143075 3.06431368 -8.60894074 2.53631358 -7 2 C-7 2.66 -7 3.32 -7 4 C-6.34 4 -5.68 4 -5 4 C-5 3.34 -5 2.68 -5 2 C-2 0 -2 0 0 0 Z " fill="#6F2713" transform="translate(101,19)"/>
<path d="M0 0 C1.32 0 2.64 0 4 0 C6.439623 10.23770365 7.40278241 19.4829038 7 30 C13.435 29.505 13.435 29.505 20 29 C20.495 31.97 20.495 31.97 21 35 C21.9075 35.2475 22.815 35.495 23.75 35.75 C27.10351489 37.03981342 28.67708236 38.31971042 31 41 C26.8686371 43.06568145 21.52980465 42.11657586 17 42 C15.6696875 41.97486328 15.6696875 41.97486328 14.3125 41.94921875 C8.58405901 41.61945652 8.58405901 41.61945652 5.9375 38.8125 C4.90219203 35.7065761 4.77304394 33.25303688 5 30 C3.35 30.33 1.7 30.66 0 31 C-0.33 30.01 -0.66 29.02 -1 28 C-3.60018816 31.90028225 -3.15085514 35.47434569 -3 40 C-10.41430591 41.83717315 -17.37685526 42.23576736 -25 42 C-25.495 40.515 -25.495 40.515 -26 39 C-25.37351563 38.69707031 -24.74703125 38.39414063 -24.1015625 38.08203125 C-23.28429688 37.66308594 -22.46703125 37.24414062 -21.625 36.8125 C-20.81289062 36.40644531 -20.00078125 36.00039062 -19.1640625 35.58203125 C-16.44136944 33.88513595 -16.44136944 33.88513595 -15 29 C-11.04 29.33 -7.08 29.66 -3 30 C-3.02320312 28.98421875 -3.04640625 27.9684375 -3.0703125 26.921875 C-3.38703996 6.77407993 -3.38703996 6.77407993 0 0 Z " fill="#EFF6F5" transform="translate(85,118)"/>
<path d="M0 0 C2.48823068 1.52058542 3.76623565 2.87602846 5.25 5.375 C5.25 6.035 5.25 6.695 5.25 7.375 C3.27 7.705 1.29 8.035 -0.75 8.375 C-0.09 7.715 0.57 7.055 1.25 6.375 C-0.07 5.715 -1.39 5.055 -2.75 4.375 C-4.4 5.695 -6.05 7.015 -7.75 8.375 C-5.44 8.705 -3.13 9.035 -0.75 9.375 C-0.75 10.035 -0.75 10.695 -0.75 11.375 C-3.06 11.375 -5.37 11.375 -7.75 11.375 C-7.75 12.035 -7.75 12.695 -7.75 13.375 C-8.41 13.375 -9.07 13.375 -9.75 13.375 C-9.75 14.035 -9.75 14.695 -9.75 15.375 C-10.74 15.705 -11.73 16.035 -12.75 16.375 C-12.75 14.375 -12.75 14.375 -11.75 13.375 C-12.15929986 11.32103274 -12.15929986 11.32103274 -12.75 9.375 C-13.41 9.375 -14.07 9.375 -14.75 9.375 C-15.08 11.685 -15.41 13.995 -15.75 16.375 C-14.76 16.705 -13.77 17.035 -12.75 17.375 C-13.08 18.365 -13.41 19.355 -13.75 20.375 C-13.75 19.715 -13.75 19.055 -13.75 18.375 C-15.73 19.035 -17.71 19.695 -19.75 20.375 C-19.42 19.385 -19.09 18.395 -18.75 17.375 C-19.74 17.705 -20.73 18.035 -21.75 18.375 C-20.02773504 21.62349977 -20.02773504 21.62349977 -16.75 22.375 C-17.41 22.375 -18.07 22.375 -18.75 22.375 C-18.42 23.035 -18.09 23.695 -17.75 24.375 C-16.43 24.705 -15.11 25.035 -13.75 25.375 C-12.43 22.735 -11.11 20.095 -9.75 17.375 C-8.08388095 17.332279 -6.41617115 17.33436168 -4.75 17.375 C-3.75 18.375 -3.75 18.375 -3.6875 20.9375 C-3.708125 21.741875 -3.72875 22.54625 -3.75 23.375 C-5.07 23.375 -6.39 23.375 -7.75 23.375 C-8.08 24.035 -8.41 24.695 -8.75 25.375 C-11.91240582 27.48327055 -13.25657469 27.71317465 -16.9375 28 C-17.83855469 28.07476562 -18.73960938 28.14953125 -19.66796875 28.2265625 C-20.35503906 28.27554688 -21.04210937 28.32453125 -21.75 28.375 C-19.28990037 29.60504981 -17.61827194 29.50814027 -14.875 29.5 C-14.01132813 29.50257812 -13.14765625 29.50515625 -12.2578125 29.5078125 C-9.77192874 29.47079274 -9.77192874 29.47079274 -7.5546875 28.7421875 C-6.95914063 28.62101562 -6.36359375 28.49984375 -5.75 28.375 C-3.75 30.375 -3.75 30.375 -3.5 33.375 C-3.75 36.375 -3.75 36.375 -5.75 38.375 C-7.07 38.375 -8.39 38.375 -9.75 38.375 C-10.08 37.715 -10.41 37.055 -10.75 36.375 C-12.20792884 36.32100264 -13.66642712 36.28220823 -15.125 36.25 C-15.93710938 36.22679687 -16.74921875 36.20359375 -17.5859375 36.1796875 C-19.96342243 36.16129949 -19.96342243 36.16129949 -21.75 38.375 C-25.28571429 37.83928571 -25.28571429 37.83928571 -26.75 36.375 C-27.17407099 31.71021915 -26.44319525 29.19035994 -23.75 25.375 C-24.74 24.715 -25.73 24.055 -26.75 23.375 C-27.4375 19.75 -27.4375 19.75 -27.75 16.375 C-26.1 16.375 -24.45 16.375 -22.75 16.375 C-22.42 15.055 -22.09 13.735 -21.75 12.375 C-23.73 11.715 -25.71 11.055 -27.75 10.375 C-27.75 9.715 -27.75 9.055 -27.75 8.375 C-24.75 6.375 -24.75 6.375 -21.75 6.375 C-22.08 5.055 -22.41 3.735 -22.75 2.375 C-23.513125 2.375 -24.27625 2.375 -25.0625 2.375 C-26.95833333 2.375 -28.85416667 2.375 -30.75 2.375 C-31.08 1.715 -31.41 1.055 -31.75 0.375 C-30.12509046 0.34801811 -28.50005367 0.32861243 -26.875 0.3125 C-25.97007813 0.30089844 -25.06515625 0.28929687 -24.1328125 0.27734375 C-21.75 0.375 -21.75 0.375 -19.75 1.375 C-14.90762364 1.75566213 -10.60972541 1.62868947 -5.9375 0.25 C-2.75 -0.625 -2.75 -0.625 0 0 Z " fill="#EAAC8F" transform="translate(101.75,36.625)"/>
<path d="M0 0 C0.495 6.93 0.495 6.93 1 14 C-5.52786659 16.61114663 -10.70608366 17.16042107 -17.625 17.125 C-18.7696875 17.13080078 -18.7696875 17.13080078 -19.9375 17.13671875 C-23.21351362 17.13097136 -25.87137676 17.04287441 -29 16 C-29.33 20.95 -29.66 25.9 -30 31 C-30.33 31 -30.66 31 -31 31 C-31.0246985 27.04900072 -31.04285923 23.09803126 -31.05493164 19.14697266 C-31.06244036 17.14093449 -31.0751447 15.13491798 -31.08789062 13.12890625 C-31.09111328 11.87207031 -31.09433594 10.61523438 -31.09765625 9.3203125 C-31.10289307 8.15773926 -31.10812988 6.99516602 -31.11352539 5.79736328 C-31 3 -31 3 -30 1 C-25.75004877 0.83207423 -21.50003166 0.66587676 -17.25 0.5 C-16.0434375 0.45230469 -14.836875 0.40460938 -13.59375 0.35546875 C-11.85351562 0.28779297 -11.85351562 0.28779297 -10.078125 0.21875 C-8.47565918 0.1559082 -8.47565918 0.1559082 -6.84082031 0.09179688 C-4.56153124 0.01814505 -2.28047873 0 0 0 Z " fill="#19A7D2" transform="translate(102,97)"/>
<path d="M0 0 C1.4835001 0.42257276 2.96176424 0.86356322 4.4375 1.3125 C5.67306641 1.67794922 5.67306641 1.67794922 6.93359375 2.05078125 C7.61550781 2.36402344 8.29742187 2.67726563 9 3 C9.33 3.99 9.66 4.98 10 6 C12.97 6 15.94 6 19 6 C19.33 5.01 19.66 4.02 20 3 C22.91524944 1.14484127 24.93266359 -0.05996272 28.43359375 0.13671875 C31.75770941 1.25487638 33.08550527 2.88255719 35.3125 5.5625 C36.00988281 6.38878906 36.70726562 7.21507813 37.42578125 8.06640625 C38.20501953 9.02353516 38.20501953 9.02353516 39 10 C37.65289578 14.04131267 35.61571666 14.90288434 32 17 C31.01 17 30.02 17 29 17 C28.505 14.525 28.505 14.525 28 12 C27.45182617 12.16298584 26.90365234 12.32597168 26.33886719 12.49389648 C23.68558577 13.06803556 21.29257322 13.11273652 18.578125 13.09765625 C17.55332031 13.09443359 16.52851562 13.09121094 15.47265625 13.08789062 C14.40917969 13.07951172 13.34570312 13.07113281 12.25 13.0625 C11.17105469 13.05798828 10.09210938 13.05347656 8.98046875 13.04882812 C6.32025617 13.03705727 3.66015635 13.02061399 1 13 C0.67 14.32 0.34 15.64 0 17 C-3.77545388 15.90931332 -6.47043472 15.0916909 -9 12 C-7.54718935 6.67302761 -3.91888622 3.63597198 0 0 Z " fill="#1BA7D6" transform="translate(72,76)"/>
<path d="M0 0 C1.875 1.25 1.875 1.25 3.875 3.25 C4.865 3.58 5.855 3.91 6.875 4.25 C6.92894705 6.85444348 6.96864469 9.45776998 7 12.0625 C7.01675781 12.80048828 7.03351563 13.53847656 7.05078125 14.29882812 C7.08574628 18.16246426 7.06897555 19.95903668 4.875 23.25 C2.875 23.25 0.875 23.25 -1.125 23.25 C-2.1444119 24.23020375 -3.14746356 25.22803008 -4.125 26.25 C-6.25 25.875 -6.25 25.875 -8.125 25.25 C-8.455 25.58 -8.785 25.91 -9.125 26.25 C-11.3046875 26.453125 -11.3046875 26.453125 -14 26.5 C-14.88429688 26.52578125 -15.76859375 26.5515625 -16.6796875 26.578125 C-19.53464372 26.19503183 -20.36495897 25.46462117 -22.125 23.25 C-20.73474609 23.17652344 -20.73474609 23.17652344 -19.31640625 23.1015625 C-18.11886719 23.02679688 -16.92132813 22.95203125 -15.6875 22.875 C-13.89505859 22.77058594 -13.89505859 22.77058594 -12.06640625 22.6640625 C-11.09574219 22.52742188 -10.12507813 22.39078125 -9.125 22.25 C-8.795 21.59 -8.465 20.93 -8.125 20.25 C-5.5625 19.625 -5.5625 19.625 -3.125 19.25 C-3.62 16.775 -3.62 16.775 -4.125 14.25 C-5.775 14.25 -7.425 14.25 -9.125 14.25 C-9.2796875 15.3946875 -9.2796875 15.3946875 -9.4375 16.5625 C-10.16864039 19.42059424 -10.89451913 20.40742885 -13.125 22.25 C-17.76825424 20.46413298 -18.97979632 19.67448258 -21.125 15.25 C-21.455 14.59 -21.785 13.93 -22.125 13.25 C-20.805 13.25 -19.485 13.25 -18.125 13.25 C-17.795 13.91 -17.465 14.57 -17.125 15.25 C-15.475 14.59 -13.825 13.93 -12.125 13.25 C-13.445 13.25 -14.765 13.25 -16.125 13.25 C-15.465 10.61 -14.805 7.97 -14.125 5.25 C-13.465 5.25 -12.805 5.25 -12.125 5.25 C-10.125 7.25 -10.125 7.25 -10.125 10.25 C-9.795 9.92 -9.465 9.59 -9.125 9.25 C-8.465 9.25 -7.805 9.25 -7.125 9.25 C-7.125 8.59 -7.125 7.93 -7.125 7.25 C-4.815 7.25 -2.505 7.25 -0.125 7.25 C-0.125 6.59 -0.125 5.93 -0.125 5.25 C-2.765 5.25 -5.405 5.25 -8.125 5.25 C-7.14358061 2.79645152 -6.40254408 1.45353232 -4.25 -0.125 C-2.125 -0.75 -2.125 -0.75 0 0 Z " fill="#F8BFA2" transform="translate(101.125,40.75)"/>
<path d="M0 0 C0.33 0.99 0.66 1.98 1 3 C2.98 2.67 4.96 2.34 7 2 C7 2.99 7 3.98 7 5 C7.66 5 8.32 5 9 5 C9.33 3.68 9.66 2.36 10 1 C12.18351455 4.27527182 12.34827465 5.70170774 12.6328125 9.54296875 C12.71660156 10.61611328 12.80039063 11.68925781 12.88671875 12.79492188 C12.96535156 13.91447266 13.04398438 15.03402344 13.125 16.1875 C13.21136719 17.31865234 13.29773438 18.44980469 13.38671875 19.61523438 C13.59895415 22.40966714 13.80305481 25.20445481 14 28 C11.35541621 29.32229189 9.32238699 29.09677194 6.375 29.0625 C5.37210937 29.05347656 4.36921875 29.04445312 3.3359375 29.03515625 C2.56507812 29.02355469 1.79421875 29.01195312 1 29 C0.93941406 28.01 0.87882812 27.02 0.81640625 26 C0.73232149 24.66663183 0.64764775 23.33330071 0.5625 22 C0.51883301 21.31172119 0.47516602 20.62344238 0.43017578 19.91430664 C0.19671009 16.39778157 -0.09988248 12.92237084 -0.625 9.4375 C-0.99755352 6.02242603 -0.7508683 3.33719243 0 0 Z " fill="#214661" transform="translate(91,119)"/>
<path d="M0 0 C2.43037694 2.53164264 2.9878044 3.88820703 3.375 7.4375 C2.95399063 11.43708902 2.72108567 13.03881853 0 16 C-7.88235294 20 -7.88235294 20 -12 20 C-12 20.66 -12 21.32 -12 22 C-12.56589844 22.26554687 -13.13179687 22.53109375 -13.71484375 22.8046875 C-14.44832031 23.15789062 -15.18179688 23.51109375 -15.9375 23.875 C-16.66839844 24.22304687 -17.39929688 24.57109375 -18.15234375 24.9296875 C-20.16332459 25.8684977 -20.16332459 25.8684977 -21 28 C-24.375 28.8125 -24.375 28.8125 -28 29 C-29.9375 27.5625 -29.9375 27.5625 -31 26 C-30.01 25.34 -29.02 24.68 -28 24 C-28.33 23.34 -28.66 22.68 -29 22 C-28.01 21.67 -27.02 21.34 -26 21 C-27.98 21 -29.96 21 -32 21 C-31.01 19.515 -31.01 19.515 -30 18 C-27.8359375 17.70703125 -27.8359375 17.70703125 -25.375 17.8125 C-24.14910156 17.85310547 -24.14910156 17.85310547 -22.8984375 17.89453125 C-22.27195312 17.92933594 -21.64546875 17.96414062 -21 18 C-20.67 18.99 -20.34 19.98 -20 21 C-17.47014472 20.67613187 -17.47014472 20.67613187 -15 19 C-13.92998438 16.05880129 -13.42656082 13.09415757 -13 10 C-8.25 9 -8.25 9 -6 9 C-3.17785741 6.17785741 -1.27054318 3.81162953 0 0 Z " fill="#F2C3B0" transform="translate(112,54)"/>
<path d="M0 0 C8.91 0 17.82 0 27 0 C29 6 29 6 29 9 C25.58934861 10.03974499 22.47735158 10.11508506 18.921875 10.09765625 C17.76171875 10.09443359 16.6015625 10.09121094 15.40625 10.08789062 C14.1996875 10.07951172 12.993125 10.07113281 11.75 10.0625 C10.52796875 10.05798828 9.3059375 10.05347656 8.046875 10.04882812 C5.03120054 10.03704815 2.01562502 10.02059853 -1 10 C-2.28403083 5.5058921 -1.90525135 4.76312838 0 0 Z " fill="#95D6F4" transform="translate(73,88)"/>
<path d="M0 0 C2.31 0.33 4.62 0.66 7 1 C7 1.99 7 2.98 7 4 C7.66 4.33 8.32 4.66 9 5 C8.67 7.64 8.34 10.28 8 13 C7.01 13 6.02 13 5 13 C5.061875 14.216875 5.12375 15.43375 5.1875 16.6875 C5.19438756 20.56519349 4.50349997 22.91876927 2 26 C1.34 26 0.68 26 0 26 C-0.33 26.66 -0.66 27.32 -1 28 C2.41656024 28.16677282 2.41656024 28.16677282 6 28 C6.66 27.34 7.32 26.68 8 26 C8 28.31 8 30.62 8 33 C3.72412002 33.08384078 0.23641013 32.84728203 -4 32 C-3.67 25.73 -3.34 19.46 -3 13 C-2.67 13 -2.34 13 -2 13 C-1.34 9.7 -0.68 6.4 0 3 C0.66 3 1.32 3 2 3 C2 2.34 2 1.68 2 1 C1.34 0.67 0.68 0.34 0 0 Z " fill="#214A68" transform="translate(74,115)"/>
<path d="M0 0 C0.66 2.64 1.32 5.28 2 8 C2.66 7.01 3.32 6.02 4 5 C4.04125 6.175625 4.0825 7.35125 4.125 8.5625 C4.64972478 13.04651172 6.51215279 15.30677001 9.625 18.45703125 C12.94264531 22.1799571 12.31789138 27.2084645 12.30078125 31.90234375 C11.86656888 36.37416728 10.33825216 39.20034024 8 43 C7.67 43 7.34 43 7 43 C6.93941406 41.81921875 6.87882812 40.6384375 6.81640625 39.421875 C6.73197418 37.8645723 6.64732751 36.30728121 6.5625 34.75 C6.52318359 33.97269531 6.48386719 33.19539063 6.44335938 32.39453125 C6.38051758 31.26337891 6.38051758 31.26337891 6.31640625 30.109375 C6.27974854 29.41811523 6.24309082 28.72685547 6.20532227 28.01464844 C6.04924231 25.96905382 6.04924231 25.96905382 5.45288086 23.91503906 C4.85666084 21.39388013 5.37894114 19.48423543 6 17 C5.01 17.33 4.02 17.66 3 18 C2.67 17.01 2.34 16.02 2 15 C-0.31 15.33 -2.62 15.66 -5 16 C-4.67 14.68 -4.34 13.36 -4 12 C-3.34 12 -2.68 12 -2 12 C-1.67 9.03 -1.34 6.06 -1 3 C-2.32 2.67 -3.64 2.34 -5 2 C-2 0 -2 0 0 0 Z " fill="#772D1A" transform="translate(101,19)"/>
<path d="M0 0 C2.0625 0.4375 2.0625 0.4375 4 1 C4.33 0.67 4.66 0.34 5 0 C6.66617115 -0.04063832 8.33388095 -0.042721 10 0 C11 4.75 11 4.75 11 7 C9.02 7 7.04 7 5 7 C5 7.66 5 8.32 5 9 C7.97 9.495 7.97 9.495 11 10 C11 10.99 11 11.98 11 13 C7.32589215 14.17571451 3.83070817 14.07366746 0 14 C0 16.64 0 19.28 0 22 C-1.98 22.99 -1.98 22.99 -4 24 C-4 21.03 -4 18.06 -4 15 C-3.34 15 -2.68 15 -2 15 C-2.185625 14.34 -2.37125 13.68 -2.5625 13 C-3.14007609 9.03947825 -2.71184128 5.94748344 -2 2 C-1.34 1.34 -0.68 0.68 0 0 Z " fill="#FBC1A1" transform="translate(69,38)"/>
<path d="M0 0 C1.4835001 0.42257276 2.96176424 0.86356322 4.4375 1.3125 C5.67306641 1.67794922 5.67306641 1.67794922 6.93359375 2.05078125 C7.61550781 2.36402344 8.29742187 2.67726563 9 3 C9.33 3.99 9.66 4.98 10 6 C12.97 6 15.94 6 19 6 C19.33 5.01 19.66 4.02 20 3 C22.91524944 1.14484127 24.93266359 -0.05996272 28.43359375 0.13671875 C31.75770941 1.25487638 33.08550527 2.88255719 35.3125 5.5625 C36.00988281 6.38878906 36.70726562 7.21507813 37.42578125 8.06640625 C38.20501953 9.02353516 38.20501953 9.02353516 39 10 C37.65289578 14.04131267 35.61571666 14.90288434 32 17 C31.01 17 30.02 17 29 17 C29 16.34 29 15.68 29 15 C30.98 14.34 32.96 13.68 35 13 C34.96877057 11.03243548 34.96877057 11.03243548 34 9 C31.00384054 7.6954344 31.00384054 7.6954344 28 7 C28 6.01 28 5.02 28 4 C23.85064017 4.2814892 23.85064017 4.2814892 20.59375 6.53125 C19 8 19 8 16.73828125 8.29296875 C15.93777344 8.25816406 15.13726562 8.22335938 14.3125 8.1875 C13.10013672 8.14689453 13.10013672 8.14689453 11.86328125 8.10546875 C11.24839844 8.07066406 10.63351563 8.03585938 10 8 C9.34 6.68 8.68 5.36 8 4 C2.11693297 3.36202171 2.11693297 3.36202171 -3.0625 5.5625 C-4.30611966 8.79591112 -4.19795384 11.56880011 -4 15 C-5.9375 14.1875 -5.9375 14.1875 -8 13 C-8.33 12.01 -8.66 11.02 -9 10 C-7.63671875 8.02734375 -7.63671875 8.02734375 -5.6875 5.9375 C-5.05199219 5.24527344 -4.41648437 4.55304688 -3.76171875 3.83984375 C-2.52249988 2.5456706 -1.26699399 1.26699399 0 0 Z " fill="#39A3BD" transform="translate(72,76)"/>
<path d="M0 0 C1.67056149 0.31323028 3.33605325 0.65334443 5 1 C11.15744464 1.34835367 11.15744464 1.34835367 17.18359375 0.3671875 C18.08271484 0.18542969 18.08271484 0.18542969 19 0 C21 2 21 2 21.25 5 C21 8 21 8 19 10 C17.68 10 16.36 10 15 10 C14.67 9.34 14.34 8.68 14 8 C12.54207116 7.94600264 11.08357288 7.90720823 9.625 7.875 C8.40683594 7.84019531 8.40683594 7.84019531 7.1640625 7.8046875 C4.78657757 7.78629949 4.78657757 7.78629949 3 10 C-0.53571429 9.46428571 -0.53571429 9.46428571 -2 8 C-2.1875 5.0625 -2.1875 5.0625 -2 2 C-1.34 1.34 -0.68 0.68 0 0 Z " fill="#661506" transform="translate(77,65)"/>
<path d="M0 0 C0.66 0 1.32 0 2 0 C2 0.99 2 1.98 2 3 C3.98 3.66 5.96 4.32 8 5 C7.67 5.99 7.34 6.98 7 8 C7 7.34 7 6.68 7 6 C5.02 6.66 3.04 7.32 1 8 C1.33 7.01 1.66 6.02 2 5 C1.01 5.33 0.02 5.66 -1 6 C0.72226496 9.24849977 0.72226496 9.24849977 4 10 C3.34 10 2.68 10 2 10 C2.33 10.66 2.66 11.32 3 12 C4.32 12.33 5.64 12.66 7 13 C8.32 10.36 9.64 7.72 11 5 C12.66611905 4.957279 14.33382885 4.95936168 16 5 C17 6 17 6 17.0625 8.5625 C17.041875 9.366875 17.02125 10.17125 17 11 C15.68 11 14.36 11 13 11 C12.67 11.66 12.34 12.32 12 13 C8.59568053 15.26954631 6.83475798 15.36549949 2.8125 15.625 C1.72582031 15.69976562 0.63914062 15.77453125 -0.48046875 15.8515625 C-1.72763672 15.92503906 -1.72763672 15.92503906 -3 16 C-3 15.01 -3 14.02 -3 13 C-3.99 12.34 -4.98 11.68 -6 11 C-6.6875 7.375 -6.6875 7.375 -7 4 C-5.35 4 -3.7 4 -2 4 C-1.67 3.01 -1.34 2.02 -1 1 C-0.67 0.67 -0.34 0.34 0 0 Z " fill="#F4C0A0" transform="translate(81,49)"/>
<path d="M0 0 C4.56221246 6.84331868 6.47484509 13.86009895 7 22 C0.84765625 22.87890625 0.84765625 22.87890625 -1 23 C-2 22 -2 22 -2.0625 19.63671875 C-2.02099882 17.6783819 -1.97933348 15.72004853 -1.9375 13.76171875 C-1.99306926 11.30625192 -2.28956469 9.33666613 -3 7 C-3.66 7 -4.32 7 -5 7 C-5.33 6.01 -5.66 5.02 -6 4 C-4.02 2.68 -2.04 1.36 0 0 Z " fill="#EECAB5" transform="translate(111,87)"/>
<path d="M0 0 C1.98 1.65 3.96 3.3 6 5 C5.67 5.99 5.34 6.98 5 8 C4.34 8 3.68 8 3 8 C2.08827053 13.42643934 2.08827053 13.42643934 2.625 18.8125 C3 21 3 21 1.9375 22.875 C-0.90721851 24.52677204 -2.90192587 23.75730701 -6 23 C-7.25416869 18.67831043 -6.66638964 16.01923555 -5.1875 11.8125 C-4.83042969 10.76707031 -4.47335938 9.72164062 -4.10546875 8.64453125 C-3 6 -3 6 -1 4 C-0.3574765 1.93125966 -0.3574765 1.93125966 0 0 Z " fill="#F6C6AA" transform="translate(62,86)"/>
<path d="M0 0 C0 0.66 0 1.32 0 2 C1.36125 2.37125 1.36125 2.37125 2.75 2.75 C6.10351489 4.03981342 7.67708236 5.31971042 10 8 C3.67872943 11.16063529 -5.53535781 8.98912067 -12 7 C-12 5.02 -12 3.04 -12 1 C-7.58774263 -0.47075246 -4.51718381 -1.36884358 0 0 Z " fill="#D3464C" transform="translate(106,151)"/>
<path d="M0 0 C2.1875 -0.3125 2.1875 -0.3125 5 0 C7.8125 2.5 7.8125 2.5 10 5 C10.66 4.67 11.32 4.34 12 4 C12.66 5.32 13.32 6.64 14 8 C13.01 9.485 13.01 9.485 12 11 C10 11 8 11 6 11 C4.9805881 11.98020375 3.97753644 12.97803008 3 14 C0.875 13.625 0.875 13.625 -1 13 C-1.33 13.33 -1.66 13.66 -2 14 C-4.1796875 14.203125 -4.1796875 14.203125 -6.875 14.25 C-7.75929688 14.27578125 -8.64359375 14.3015625 -9.5546875 14.328125 C-12.40964372 13.94503183 -13.23995897 13.21462117 -15 11 C-13.60974609 10.92652344 -13.60974609 10.92652344 -12.19140625 10.8515625 C-10.99386719 10.77679688 -9.79632813 10.70203125 -8.5625 10.625 C-7.36753906 10.55539063 -6.17257813 10.48578125 -4.94140625 10.4140625 C-3.97074219 10.27742188 -3.00007813 10.14078125 -2 10 C-1.67 9.34 -1.34 8.68 -1 8 C1.5625 7.375 1.5625 7.375 4 7 C3.72965366 4.56282742 3.72965366 4.56282742 3 2 C2.01 1.34 1.02 0.68 0 0 Z " fill="#EEBFA5" transform="translate(94,53)"/>
<path d="M0 0 C3.63 0.33 7.26 0.66 11 1 C11 2.98 11 4.96 11 7 C3.87049629 8.90120099 -2.63740707 9.22424141 -10 9 C-10.33 8.01 -10.66 7.02 -11 6 C-7.16674383 3.29417212 -4.67461851 2.67386382 0 3 C0 2.01 0 1.02 0 0 Z " fill="#C63839" transform="translate(70,151)"/>
<path d="M0 0 C0.66 0.33 1.32 0.66 2 1 C1.34 1.66 0.68 2.32 0 3 C-0.25005386 6.04182893 -0.25005386 6.04182893 0 9 C1.58272601 10.58272601 3.38034003 10.34735747 5.5625 10.5625 C6.38878906 10.64628906 7.21507813 10.73007813 8.06640625 10.81640625 C8.70449219 10.87699219 9.34257813 10.93757813 10 11 C9.67 11.66 9.34 12.32 9 13 C9 13.66 9 14.32 9 15 C2.80957505 15.80744673 -0.41178385 13.87220777 -5.5625 10.51953125 C-7.69817716 9.18815558 -9.65384909 8.24991878 -12 7.375 C-15 6 -15 6 -16.4375 3.8125 C-16.623125 3.214375 -16.80875 2.61625 -17 2 C-16.01 2 -15.02 2 -14 2 C-13.67 2.66 -13.34 3.32 -13 4 C-10.97536745 4.65213292 -10.97536745 4.65213292 -9 5 C-9 4.01 -9 3.02 -9 2 C-6.94921875 1.77213542 -4.8984375 1.54427083 -2.84765625 1.31640625 C-0.98859771 1.18113386 -0.98859771 1.18113386 0 0 Z " fill="#F3BEA2" transform="translate(76,64)"/>
<path d="M0 0 C0.78632812 0.15339844 1.57265625 0.30679688 2.3828125 0.46484375 C6.87830226 1.12994321 11.33883176 1.35413685 15.875 1.5625 C16.75414063 1.60568359 17.63328125 1.64886719 18.5390625 1.69335938 C20.69255797 1.79869339 22.84626064 1.89977649 25 2 C24.67 2.99 24.34 3.98 24 5 C24.66 5 25.32 5 26 5 C25.67 5.99 25.34 6.98 25 8 C25 7.34 25 6.68 25 6 C17.41 6 9.82 6 2 6 C2.33 7.32 2.66 8.64 3 10 C1.68 10 0.36 10 -1 10 C-2.15837626 5.94568308 -1.83691257 3.78187881 0 0 Z " fill="#96D3E7" transform="translate(73,88)"/>
<path d="M0 0 C0.495 6.93 0.495 6.93 1 14 C0.01 14 -0.98 14 -2 14 C-2 10.37 -2 6.74 -2 3 C-5.20839057 2.97291227 -8.41655003 2.95311832 -11.625 2.9375 C-12.52863281 2.92912109 -13.43226562 2.92074219 -14.36328125 2.91210938 C-19.02904289 2.89508105 -23.41013285 3.03170577 -28 4 C-28 7.3 -28 10.6 -28 14 C-25.03 14.495 -25.03 14.495 -22 15 C-22 15.66 -22 16.32 -22 17 C-24.31 16.67 -26.62 16.34 -29 16 C-29.33 20.95 -29.66 25.9 -30 31 C-30.33 31 -30.66 31 -31 31 C-31.0246985 27.04900072 -31.04285923 23.09803126 -31.05493164 19.14697266 C-31.06244036 17.14093449 -31.0751447 15.13491798 -31.08789062 13.12890625 C-31.09111328 11.87207031 -31.09433594 10.61523438 -31.09765625 9.3203125 C-31.10289307 8.15773926 -31.10812988 6.99516602 -31.11352539 5.79736328 C-31 3 -31 3 -30 1 C-25.75004877 0.83207423 -21.50003166 0.66587676 -17.25 0.5 C-16.0434375 0.45230469 -14.836875 0.40460938 -13.59375 0.35546875 C-11.85351562 0.28779297 -11.85351562 0.28779297 -10.078125 0.21875 C-8.47565918 0.1559082 -8.47565918 0.1559082 -6.84082031 0.09179688 C-4.56153124 0.01814505 -2.28047873 0 0 0 Z " fill="#34A2C4" transform="translate(102,97)"/>
<path d="M0 0 C2 1 2 1 4 4 C2.73046875 5.46484375 1.4609375 6.9296875 0.19140625 8.39453125 C-2.35245725 11.82249158 -2.27703652 15.56866984 -2.5625 19.6875 C-2.64628906 20.86699219 -2.73007813 22.04648437 -2.81640625 23.26171875 C-2.87699219 24.16535156 -2.93757813 25.06898437 -3 26 C-6.27182461 22.72817539 -6.18311759 19.61845979 -6.25 15.1875 C-6.20058708 9.34265748 -5.29088122 5.54542358 -1.3125 1.125 C-0.879375 0.75375 -0.44625 0.3825 0 0 Z " fill="#622111" transform="translate(67,33)"/>
<path d="M0 0 C0.33 0.99 0.66 1.98 1 3 C2.98 2.67 4.96 2.34 7 2 C7 2.99 7 3.98 7 5 C7.66 5 8.32 5 9 5 C9.33 3.68 9.66 2.36 10 1 C12.28062828 4.42094242 12.21925007 5.68187222 12.125 9.6875 C12.10695313 10.68136719 12.08890625 11.67523438 12.0703125 12.69921875 C12.03550781 13.83810547 12.03550781 13.83810547 12 15 C11.34 15 10.68 15 10 15 C10 15.99 10 16.98 10 18 C9.01 17.67 8.02 17.34 7 17 C7.33 14.36 7.66 11.72 8 9 C7.01 9 6.02 9 5 9 C4.34 9.66 3.68 10.32 3 11 C3 9.68 3 8.36 3 7 C2.01 7 1.02 7 0 7 C-0.33 7.66 -0.66 8.32 -1 9 C-0.67 6.03 -0.34 3.06 0 0 Z " fill="#21496B" transform="translate(91,119)"/>
<path d="M0 0 C1.5 1.3125 1.5 1.3125 3 3 C3 3.99 3 4.98 3 6 C1.68 6.33 0.36 6.66 -1 7 C-0.690625 7.7425 -0.38125 8.485 -0.0625 9.25 C0.81160747 11.5123958 1.44256673 13.64974079 2 16 C-6.261959 20.59225513 -6.261959 20.59225513 -11 20 C-11 19.01 -11 18.02 -11 17 C-8.36 17 -5.72 17 -3 17 C-3.09539063 16.33613281 -3.19078125 15.67226562 -3.2890625 14.98828125 C-4.39015817 6.21792619 -4.39015817 6.21792619 -2 2 C-1.34 2 -0.68 2 0 2 C0 1.34 0 0.68 0 0 Z " fill="#FCF5EA" transform="translate(67,92)"/>
<path d="M0 0 C0.40089844 0.49371094 0.80179687 0.98742187 1.21484375 1.49609375 C3.50895806 3.42877211 4.61877015 3.26133513 7.5625 3.0625 C9.94140625 2.91015625 9.94140625 2.91015625 12 3 C12.66 3.66 13.32 4.32 14 5 C14.99 5.66 15.98 6.32 17 7 C16 8 16 8 13.78515625 8.1328125 C12.88667969 8.13023438 11.98820312 8.12765625 11.0625 8.125 C10.16660156 8.12757812 9.27070312 8.13015625 8.34765625 8.1328125 C6 8 6 8 4 7 C2.46331135 6.77532169 0.92031946 6.59203195 -0.625 6.4375 C-1.44226563 6.35371094 -2.25953125 6.26992188 -3.1015625 6.18359375 C-3.72804688 6.12300781 -4.35453125 6.06242187 -5 6 C-3.86695008 2.60085025 -2.87481525 1.94745549 0 0 Z " fill="#762C17" transform="translate(76,31)"/>
<path d="M0 0 C1.32 0.66 2.64 1.32 4 2 C3.67 8.27 3.34 14.54 3 21 C1.02 21 -0.96 21 -3 21 C-2.625 19.0625 -2.625 19.0625 -2 17 C-1.34 16.67 -0.68 16.34 0 16 C-0.144375 15.443125 -0.28875 14.88625 -0.4375 14.3125 C-1.02769128 11.88615805 -1.523429 9.45093655 -2 7 C-0.68 6.67 0.64 6.34 2 6 C1.34 4.02 0.68 2.04 0 0 Z " fill="#E6FBFC" transform="translate(68,92)"/>
<path d="M0 0 C-0.04125 0.78375 -0.0825 1.5675 -0.125 2.375 C-0.28728734 5.16116119 -0.28728734 5.16116119 2 7 C2 8.32 2 9.64 2 11 C-2.66398819 10.13629848 -6.10877516 7.59414989 -10 5 C-10 4.34 -10 3.68 -10 3 C-6.64781163 0.76520776 -4.01177204 0 0 0 Z " fill="#F6F7F1" transform="translate(110,71)"/>
<path d="M0 0 C2.43037694 2.53164264 2.9878044 3.88820703 3.375 7.4375 C2.98139605 11.17673756 2.26342975 13.04013032 0 16 C-2.70879335 17.35439668 -5.00933268 17.06501451 -8 17 C-8 16.34 -8 15.68 -8 15 C-7.21625 14.87625 -6.4325 14.7525 -5.625 14.625 C-2.82465962 13.2805606 -2.82465962 13.2805606 -2.2578125 10.74609375 C-1.92245573 8.97386222 -1.62217818 7.19458985 -1.359375 5.41015625 C-1 3 -1 3 0 0 Z " fill="#F1C1A6" transform="translate(112,54)"/>
<path d="M0 0 C2.02902622 3.04353933 2.41438746 4.40756882 2.8125 7.9375 C2.92207031 8.79214844 3.03164062 9.64679688 3.14453125 10.52734375 C2.96558861 13.58871373 2.11546322 14.82395072 0 17 C-0.66 17 -1.32 17 -2 17 C-1.979375 16.0925 -1.95875 15.185 -1.9375 14.25 C-1.9889755 11.57327412 -2.2215017 9.53011948 -3 7 C-3.66 7 -4.32 7 -5 7 C-5.33 6.01 -5.66 5.02 -6 4 C-4.02 2.68 -2.04 1.36 0 0 Z " fill="#F3C5AA" transform="translate(111,87)"/>
<path d="M0 0 C0.66 0 1.32 0 2 0 C2 0.99 2 1.98 2 3 C3.98 3.66 5.96 4.32 8 5 C7.67 5.99 7.34 6.98 7 8 C7 7.34 7 6.68 7 6 C5.02 6.66 3.04 7.32 1 8 C1.33 7.01 1.66 6.02 2 5 C1.01 5.33 0.02 5.66 -1 6 C-0.7215625 6.9590625 -0.7215625 6.9590625 -0.4375 7.9375 C-0.293125 8.618125 -0.14875 9.29875 0 10 C-1 11 -1 11 -3.5625 11.0625 C-4.366875 11.041875 -5.17125 11.02125 -6 11 C-6.33 8.69 -6.66 6.38 -7 4 C-5.35 4 -3.7 4 -2 4 C-1.67 3.01 -1.34 2.02 -1 1 C-0.67 0.67 -0.34 0.34 0 0 Z " fill="#ECBEA5" transform="translate(81,49)"/>
<path d="M0 0 C0 0.99 0 1.98 0 3 C-0.33 2.67 -0.66 2.34 -1 2 C-3.33944736 2.28730055 -5.6739143 2.61936779 -8 3 C-8.1546875 4.1446875 -8.1546875 4.1446875 -8.3125 5.3125 C-9.04364039 8.17059424 -9.76951913 9.15742885 -12 11 C-16.64325424 9.21413298 -17.85479632 8.42448258 -20 4 C-20.33 3.34 -20.66 2.68 -21 2 C-19.68 2 -18.36 2 -17 2 C-16.67 2.66 -16.34 3.32 -16 4 C-14.68 3.67 -13.36 3.34 -12 3 C-12 3.99 -12 4.98 -12 6 C-11.34 6 -10.68 6 -10 6 C-9.87625 5.195625 -9.7525 4.39125 -9.625 3.5625 C-9.41875 2.716875 -9.2125 1.87125 -9 1 C-6.04335481 -0.4783226 -3.25770263 -0.06032783 0 0 Z " fill="#DAA789" transform="translate(100,52)"/>
<path d="M0 0 C0.33 0 0.66 0 1 0 C1.33 3.63 1.66 7.26 2 11 C-0.64458379 12.32229189 -2.67761301 12.09677194 -5.625 12.0625 C-6.62789063 12.05347656 -7.63078125 12.04445312 -8.6640625 12.03515625 C-9.43492188 12.02355469 -10.20578125 12.01195312 -11 12 C-11 9.36 -11 6.72 -11 4 C-10.67 5.32 -10.34 6.64 -10 8 C-6.7 7.67 -3.4 7.34 0 7 C0 4.69 0 2.38 0 0 Z " fill="#92B5BC" transform="translate(103,136)"/>
<path d="M0 0 C2.95662966 0.22743305 4.55033688 0.61235938 6.8125 2.5625 C7.204375 3.036875 7.59625 3.51125 8 4 C7.34 4 6.68 4 6 4 C5.7525 4.804375 5.505 5.60875 5.25 6.4375 C4 9 4 9 2 9.9375 C1.01 9.9684375 1.01 9.9684375 0 10 C-2 8 -2 8 -2.25 5 C-2 2 -2 2 0 0 Z " fill="#691A12" transform="translate(77,65)"/>
<path d="M0 0 C0.33 0 0.66 0 1 0 C1.05398987 2.27057377 1.09278742 4.54151288 1.125 6.8125 C1.14820313 8.07707031 1.17140625 9.34164062 1.1953125 10.64453125 C1 14 1 14 -1 17 C-1.0255089 19.5254223 -1.0255089 19.5254223 -0.625 22.1875 C-0.51414063 23.08855469 -0.40328125 23.98960938 -0.2890625 24.91796875 C-0.19367187 25.60503906 -0.09828125 26.29210937 0 27 C-0.66 27.33 -1.32 27.66 -2 28 C-4 26 -4 26 -4.046875 23.3125 C-3.33678802 15.38942418 -2.52558359 7.57675076 0 0 Z " fill="#FCF5E9" transform="translate(60,42)"/>
<path d="M0 0 C0.33 0.66 0.66 1.32 1 2 C1.825 2.309375 2.65 2.61875 3.5 2.9375 C4.325 3.288125 5.15 3.63875 6 4 C6.33 4.99 6.66 5.98 7 7 C3.9317362 7.89749822 1.20730024 8.11711768 -1.984375 8.09765625 C-2.91894531 8.09443359 -3.85351562 8.09121094 -4.81640625 8.08789062 C-5.78449219 8.07951172 -6.75257812 8.07113281 -7.75 8.0625 C-9.22533203 8.05573242 -9.22533203 8.05573242 -10.73046875 8.04882812 C-13.15370791 8.03706483 -15.57682273 8.02062684 -18 8 C-18 7.67 -18 7.34 -18 7 C-9.585 6.505 -9.585 6.505 -1 6 C-1 5.67 -1 5.34 -1 5 C-3.97 4.67 -6.94 4.34 -10 4 C-10 3.67 -10 3.34 -10 3 C-8.72125 2.87625 -7.4425 2.7525 -6.125 2.625 C-2.65209064 2.30957601 -2.65209064 2.30957601 0 0 Z " fill="#31A4CB" transform="translate(93,81)"/>
<path d="M0 0 C5.94 0.99 5.94 0.99 12 2 C11.34 3.65 10.68 5.3 10 7 C9.67 6.01 9.34 5.02 9 4 C7.35 4 5.7 4 4 4 C4 5.32 4 6.64 4 8 C3.34 8 2.68 8 2 8 C1.67 13.28 1.34 18.56 1 24 C0.67 24 0.34 24 0 24 C0 16.08 0 8.16 0 0 Z " fill="#243F58" transform="translate(72,112)"/>
<path d="M0 0 C3.3 0.33 6.6 0.66 10 1 C10 1.66 10 2.32 10 3 C10.66 3 11.32 3 12 3 C12 5.64 12 8.28 12 11 C11.67 11 11.34 11 11 11 C11 9.02 11 7.04 11 5 C9.9275 5.020625 8.855 5.04125 7.75 5.0625 C4.85209576 5.0142016 2.71387859 4.86844115 0 4 C0 4.99 0 5.98 0 7 C-1.32 6.67 -2.64 6.34 -4 6 C-3.525625 5.566875 -3.05125 5.13375 -2.5625 4.6875 C-0.76313043 2.97690387 -0.76313043 2.97690387 0 0 Z " fill="#E8C9C1" transform="translate(70,147)"/>
<path d="M0 0 C1.98 0.495 1.98 0.495 4 1 C3.34 1 2.68 1 2 1 C2 4.96 2 8.92 2 13 C4.97 13.495 4.97 13.495 8 14 C8 14.66 8 15.32 8 16 C5.69 15.67 3.38 15.34 1 15 C0.67 19.95 0.34 24.9 0 30 C-0.33 30 -0.66 30 -1 30 C-1.0246985 26.04900072 -1.04285923 22.09803126 -1.05493164 18.14697266 C-1.06244036 16.14093449 -1.0751447 14.13491798 -1.08789062 12.12890625 C-1.09111328 10.87207031 -1.09433594 9.61523438 -1.09765625 8.3203125 C-1.10289307 7.15773926 -1.10812988 5.99516602 -1.11352539 4.79736328 C-1 2 -1 2 0 0 Z " fill="#549DB6" transform="translate(72,98)"/>
<path d="M0 0 C4.62609198 -0.3227506 7.28026121 0.15549386 11 3 C11 3.66 11 4.32 11 5 C11.99 5.33 12.98 5.66 14 6 C14.8125 7.9375 14.8125 7.9375 15 10 C14.34 10.66 13.68 11.32 13 12 C13 10.35 13 8.7 13 7 C11.35 7.66 9.7 8.32 8 9 C8 5 8 5 9 3 C8.34 3 7.68 3 7 3 C6.67 4.32 6.34 5.64 6 7 C5.01 7 4.02 7 3 7 C3 5.68 3 4.36 3 3 C3.66 3 4.32 3 5 3 C5 2.34 5 1.68 5 1 C3.02 1.33 1.04 1.66 -1 2 C-0.67 1.34 -0.34 0.68 0 0 Z " fill="#ACABAB" transform="translate(41,26)"/>
<path d="M0 0 C0.33 0 0.66 0 1 0 C1 2.31 1 4.62 1 7 C-3.16138263 7.08159574 -6.9472484 6.98248524 -11 6 C-11 4.68 -11 3.36 -11 2 C-7.7 2 -4.4 2 -1 2 C-0.67 1.34 -0.34 0.68 0 0 Z " fill="#50869B" transform="translate(81,141)"/>
<path d="M0 0 C1.175625 0.4640625 1.175625 0.4640625 2.375 0.9375 C6.89851578 2.26335807 11.31431814 2.64811085 16 3 C16 3.99 16 4.98 16 6 C4.47835991 6.3690205 4.47835991 6.3690205 -1 4 C-0.67 2.68 -0.34 1.36 0 0 Z " fill="#11A6D0" transform="translate(77,82)"/>
<path d="M0 0 C2.02045442 0.60183749 4.02111039 1.27306096 6 2 C6.33 2.66 6.66 3.32 7 4 C5.741875 3.9175 4.48375 3.835 3.1875 3.75 C-0.18915737 3.74523572 -0.18915737 3.74523572 -3 5.5625 C-4.32761013 8.7985497 -4.19966912 11.53906866 -4 15 C-5.9375 14.1875 -5.9375 14.1875 -8 13 C-8.33 12.01 -8.66 11.02 -9 10 C-7.63671875 8.02734375 -7.63671875 8.02734375 -5.6875 5.9375 C-5.05199219 5.24527344 -4.41648437 4.55304688 -3.76171875 3.83984375 C-2.52249988 2.5456706 -1.26699399 1.26699399 0 0 Z " fill="#2DA0BC" transform="translate(72,76)"/>
<path d="M0 0 C0.66 0 1.32 0 2 0 C2 0.66 2 1.32 2 2 C2.99 2 3.98 2 5 2 C6.6875 3.0625 6.6875 3.0625 8 5 C8.04241723 7.33294775 8.04092937 9.66702567 8 12 C8.88064927 14.35369807 8.88064927 14.35369807 10 16 C7.53199953 14.84826645 5.95216435 13.95216435 4 12 C3.375 9.375 3.375 9.375 3 7 C2.01 7.495 2.01 7.495 1 8 C0.67 5.36 0.34 2.72 0 0 Z " fill="#F8EFE9" transform="translate(101,20)"/>
<path d="M0 0 C0.66 0.33 1.32 0.66 2 1 C1.67 4.63 1.34 8.26 1 12 C0.34 12 -0.32 12 -1 12 C-0.67 16.95 -0.34 21.9 0 27 C-0.99 26.67 -1.98 26.34 -3 26 C-2.88964039 22.60352587 -2.75912556 19.20811211 -2.625 15.8125 C-2.5940625 14.85279297 -2.563125 13.89308594 -2.53125 12.90429688 C-2.49257813 11.97294922 -2.45390625 11.04160156 -2.4140625 10.08203125 C-2.3826416 9.22843018 -2.3512207 8.3748291 -2.31884766 7.49536133 C-1.96650422 4.73785578 -1.12928753 2.53000031 0 0 Z " fill="#EEAF95" transform="translate(66,41)"/>
<path d="M0 0 C0.99 0 1.98 0 3 0 C3.125 2.875 3.125 2.875 3 6 C2.34 6.66 1.68 7.32 1 8 C0.01 8 -0.98 8 -2 8 C-2 7.34 -2 6.68 -2 6 C-4.97 5.505 -4.97 5.505 -8 5 C-7.67 4.01 -7.34 3.02 -7 2 C-5.02 2 -3.04 2 -1 2 C-0.67 1.34 -0.34 0.68 0 0 Z " fill="#F2AD8C" transform="translate(107,61)"/>
<path d="M0 0 C0.99 0 1.98 0 3 0 C3 0.99 3 1.98 3 3 C5.31 3.33 7.62 3.66 10 4 C10 4.33 10 4.66 10 5 C5.545 5.495 5.545 5.495 1 6 C0.67 7.32 0.34 8.64 0 10 C-1.32 9.67 -2.64 9.34 -4 9 C-4 7.35 -4 5.7 -4 4 C-3.01 4 -2.02 4 -1 4 C-0.67 2.68 -0.34 1.36 0 0 Z " fill="#1EA1C7" transform="translate(72,83)"/>
<path d="M0 0 C2.1640625 -0.29296875 2.1640625 -0.29296875 4.625 -0.1875 C5.44226563 -0.16042969 6.25953125 -0.13335937 7.1015625 -0.10546875 C8.04128906 -0.05326172 8.04128906 -0.05326172 9 0 C9 1.32 9 2.64 9 4 C8.34 4 7.68 4 7 4 C6.67 4.66 6.34 5.32 6 6 C4.68 6 3.36 6 2 6 C1.67 5.34 1.34 4.68 1 4 C1.99 3.67 2.98 3.34 4 3 C2.02 3 0.04 3 -2 3 C-1.34 2.01 -0.68 1.02 0 0 Z " fill="#FAAC94" transform="translate(82,72)"/>
<path d="M0 0 C2.2109885 0.42793326 3.98119242 0.99059621 6 2 C7.96281457 5.71901707 8.15081169 7.97215907 7 12 C6.34 12 5.68 12 5 12 C5 10.68 5 9.36 5 8 C3.68 8 2.36 8 1 8 C1.875 4.125 1.875 4.125 3 3 C1.68 2.34 0.36 1.68 -1 1 C-0.67 0.67 -0.34 0.34 0 0 Z " fill="#BBBCBA" transform="translate(62,13)"/>
<path d="M0 0 C0.99 0.66 1.98 1.32 3 2 C3.29296875 4.3828125 3.29296875 4.3828125 3.1875 7.125 C3.16042969 8.03507812 3.13335937 8.94515625 3.10546875 9.8828125 C3.07066406 10.58148438 3.03585938 11.28015625 3 12 C2.01 11.34 1.02 10.68 0 10 C-0.99 10.495 -0.99 10.495 -2 11 C-3.32 8.36 -4.64 5.72 -6 3 C-3.525 3.495 -3.525 3.495 -1 4 C-0.67 2.68 -0.34 1.36 0 0 Z " fill="#F8C8AC" transform="translate(105,48)"/>
<path d="M0 0 C0 0.33 0 0.66 0 1 C-2.64 1.66 -5.28 2.32 -8 3 C-7.34 4.98 -6.68 6.96 -6 9 C-7.32 9 -8.64 9 -10 9 C-10.66 8.01 -11.32 7.02 -12 6 C-12.33 7.32 -12.66 8.64 -13 10 C-13.66 10 -14.32 10 -15 10 C-14.67 8.35 -14.34 6.7 -14 5 C-13.360625 4.896875 -12.72125 4.79375 -12.0625 4.6875 C-11.381875 4.460625 -10.70125 4.23375 -10 4 C-9.67 3.01 -9.34 2.02 -9 1 C-6.04335481 -0.4783226 -3.25770263 -0.06032783 0 0 Z " fill="#B0B0B0" transform="translate(131,24)"/>
<path d="M0 0 C7.40239645 -0.12886183 14.63959083 0.20274098 22 1 C20 3 20 3 17.4609375 3.265625 C11.28318717 3.23434525 5.91210261 2.81910849 0 1 C0 0.67 0 0.34 0 0 Z " fill="#A73135" transform="translate(94,157)"/>
<path d="M0 0 C1.98 1.65 3.96 3.3 6 5 C5.67 5.99 5.34 6.98 5 8 C4.34 8 3.68 8 3 8 C2.67 8.99 2.34 9.98 2 11 C0.68 10.67 -0.64 10.34 -2 10 C-1.34 6.7 -0.68 3.4 0 0 Z " fill="#F3BCA1" transform="translate(62,86)"/>
<path d="M0 0 C0.66 0.33 1.32 0.66 2 1 C2.4731614 8.88602342 2.17981006 14.20780865 -2 21 C-2.33 21 -2.66 21 -3 21 C-2.67 18.36 -2.34 15.72 -2 13 C-1.67 13 -1.34 13 -1 13 C-0.67 8.71 -0.34 4.42 0 0 Z " fill="#63291A" transform="translate(111,41)"/>
<path d="M0 0 C3 3 3 3 3.29296875 5.69921875 C3.25816406 6.68535156 3.22335938 7.67148438 3.1875 8.6875 C3.16042969 9.68136719 3.13335937 10.67523438 3.10546875 11.69921875 C3.07066406 12.45847656 3.03585938 13.21773437 3 14 C2.34 14 1.68 14 1 14 C1 14.99 1 15.98 1 17 C0.01 16.67 -0.98 16.34 -2 16 C-1.34 10.72 -0.68 5.44 0 0 Z " fill="#35536B" transform="translate(100,120)"/>
<path d="M0 0 C1.32 0.33 2.64 0.66 4 1 C3.73445313 1.64066406 3.46890625 2.28132813 3.1953125 2.94140625 C1.16454502 7.9145631 -0.64392834 12.80172531 -2 18 C-2.33 18 -2.66 18 -3 18 C-2.88521587 15.93690624 -2.75773802 13.87451646 -2.625 11.8125 C-2.55539063 10.66394531 -2.48578125 9.51539062 -2.4140625 8.33203125 C-2.02490426 5.20040883 -1.3190149 2.84714191 0 0 Z " fill="#FDF7EA" transform="translate(57,90)"/>
<path d="M0 0 C1.32 0 2.64 0 4 0 C4 5.94 4 11.88 4 18 C3.67 18 3.34 18 3 18 C2.67 16.02 2.34 14.04 2 12 C1.67 12 1.34 12 1 12 C0.67 8.04 0.34 4.08 0 0 Z " fill="#173447" transform="translate(98,112)"/>
<path d="M0 0 C0 0.66 0 1.32 0 2 C-3.82989106 3.80230168 -6.78121808 4.19622241 -11 4 C-11 5.98 -11 7.96 -11 10 C-10.34 10.33 -9.68 10.66 -9 11 C-9.99 11 -10.98 11 -12 11 C-12 8.36 -12 5.72 -12 3 C-11.34 2.67 -10.68 2.34 -10 2 C-10 1.34 -10 0.68 -10 0 C-2.25 -1.125 -2.25 -1.125 0 0 Z " fill="#E8C7C1" transform="translate(105,148)"/>
<path d="M0 0 C0.66 2.64 1.32 5.28 2 8 C2.66 7.01 3.32 6.02 4 5 C4 7.64 4 10.28 4 13 C3.34 12.67 2.68 12.34 2 12 C2 11.34 2 10.68 2 10 C0.68 10 -0.64 10 -2 10 C-1.67 7.69 -1.34 5.38 -1 3 C-2.32 2.67 -3.64 2.34 -5 2 C-2 0 -2 0 0 0 Z " fill="#612C21" transform="translate(101,19)"/>
<path d="M0 0 C1.80411967 2.75924185 2.0127245 3.88972103 1.625 7.25 C1.41875 8.1575 1.2125 9.065 1 10 C3.97 10.495 3.97 10.495 7 11 C6.34 11.66 5.68 12.32 5 13 C1.875 12.625 1.875 12.625 -1 12 C-2.36884358 7.48281619 -1.47075246 4.41225737 0 0 Z " fill="#EFC9B1" transform="translate(57,97)"/>
<path d="M0 0 C4.62 0 9.24 0 14 0 C13.67 0.99 13.34 1.98 13 3 C11.39667209 3.08121924 9.79215974 3.13929134 8.1875 3.1875 C7.29417969 3.22230469 6.40085937 3.25710937 5.48046875 3.29296875 C3 3 3 3 0 0 Z " fill="#F5DFD8" transform="translate(79,64)"/>
<path d="M0 0 C3.96 0 7.92 0 12 0 C12 0.66 12 1.32 12 2 C9.69 2 7.38 2 5 2 C5 2.66 5 3.32 5 4 C4.34 4 3.68 4 3 4 C3 4.66 3 5.32 3 6 C2.01 6.33 1.02 6.66 0 7 C0 5 0 5 1 4 C0.67 2.68 0.34 1.36 0 0 Z " fill="#B4775D" transform="translate(89,46)"/>
<path d="M0 0 C0 0.66 0 1.32 0 2 C-0.99 2.495 -0.99 2.495 -2 3 C-1.814375 3.94875 -1.62875 4.8975 -1.4375 5.875 C-0.73231407 10.64479926 -1.37867362 15.24924288 -2 20 C-2.66 19.67 -3.32 19.34 -4 19 C-4.24803781 16.20882755 -4.47414334 13.41884926 -4.6875 10.625 C-4.76033203 9.8309375 -4.83316406 9.036875 -4.90820312 8.21875 C-5.07421875 5.9140625 -5.07421875 5.9140625 -5 2 C-2 0 -2 0 0 0 Z " fill="#D5FAFD" transform="translate(106,92)"/>
<path d="M0 0 C3.63 0.33 7.26 0.66 11 1 C11 1.66 11 2.32 11 3 C8.5431099 3.38855926 6.08558167 3.76130088 3.625 4.125 C2.57699219 4.29322266 2.57699219 4.29322266 1.5078125 4.46484375 C-0.31787914 4.72816466 -2.1598762 4.8718116 -4 5 C-4.66 4.34 -5.32 3.68 -6 3 C-4.02 3 -2.04 3 0 3 C0 2.01 0 1.02 0 0 Z " fill="#DB464C" transform="translate(70,151)"/>
<path d="M0 0 C0.33 0.66 0.66 1.32 1 2 C1.94875 2.309375 2.8975 2.61875 3.875 2.9375 C7 4 7 4 10 7 C6.7 7 3.4 7 0 7 C0.33 5.68 0.66 4.36 1 3 C0.34 3 -0.32 3 -1 3 C-0.67 2.01 -0.34 1.02 0 0 Z " fill="#DA5E5F" transform="translate(105,151)"/>
<path d="M0 0 C0.33 0 0.66 0 1 0 C1.02721176 1.89575251 1.04649136 3.79161979 1.0625 5.6875 C1.07410156 6.74324219 1.08570312 7.79898438 1.09765625 8.88671875 C1.00865425 11.72410262 0.64939838 14.2438919 0 17 C-0.66 17 -1.32 17 -2 17 C-2.05383848 14.54137599 -2.09359038 12.0839245 -2.125 9.625 C-2.14175781 8.92632812 -2.15851563 8.22765625 -2.17578125 7.5078125 C-2.19344267 5.67102514 -2.10303261 3.83398037 -2 2 C-1.34 1.34 -0.68 0.68 0 0 Z " fill="#314D64" transform="translate(73,126)"/>
<path d="M0 0 C1.32 0.66 2.64 1.32 4 2 C3.67 3.65 3.34 5.3 3 7 C1.02 7.33 -0.96 7.66 -3 8 C-3 7.01 -3 6.02 -3 5 C-2.34 5 -1.68 5 -1 5 C-0.67 3.35 -0.34 1.7 0 0 Z " fill="#F6BC9D" transform="translate(112,99)"/>
<path d="M0 0 C2.97 0.33 5.94 0.66 9 1 C7.515 2.485 7.515 2.485 6 4 C5.34 4 4.68 4 4 4 C4 4.66 4 5.32 4 6 C1.36 5.34 -1.28 4.68 -4 4 C-3.67 3.34 -3.34 2.68 -3 2 C-2.34 2 -1.68 2 -1 2 C-0.67 1.34 -0.34 0.68 0 0 Z " fill="#E4D7D3" transform="translate(92,17)"/>
<path d="M0 0 C0.66 0.33 1.32 0.66 2 1 C1.34 1.66 0.68 2.32 0 3 C-0.39764263 4.98821313 -0.73775349 6.98944339 -1 9 C-1.66 9 -2.32 9 -3 9 C-3 7.35 -3 5.7 -3 4 C-3.99 4.33 -4.98 4.66 -6 5 C-6.99 5.33 -7.98 5.66 -9 6 C-9 4.68 -9 3.36 -9 2 C-6.94921875 1.77213542 -4.8984375 1.54427083 -2.84765625 1.31640625 C-0.98859771 1.18113386 -0.98859771 1.18113386 0 0 Z " fill="#FDC5AA" transform="translate(76,64)"/>
<path d="M0 0 C0.66 0 1.32 0 2 0 C2 0.66 2 1.32 2 2 C2.66 2.33 3.32 2.66 4 3 C3.34 3 2.68 3 2 3 C2.75150023 6.27773504 2.75150023 6.27773504 6 8 C4.02 8.33 2.04 8.66 0 9 C-1.36623674 6.26752652 -1.128426 4.01801098 -1 1 C-0.67 0.67 -0.34 0.34 0 0 Z " fill="#F8E5D7" transform="translate(73,54)"/>
<path d="M0 0 C0.66 0.33 1.32 0.66 2 1 C1.88655624 3.1464753 1.75893655 5.29220592 1.625 7.4375 C1.52058594 9.22994141 1.52058594 9.22994141 1.4140625 11.05859375 C1.27742188 12.02925781 1.14078125 12.99992187 1 14 C0.01 14.495 0.01 14.495 -1 15 C-1.02703381 13.06257659 -1.04641125 11.12504521 -1.0625 9.1875 C-1.07410156 8.10855469 -1.08570313 7.02960937 -1.09765625 5.91796875 C-1 3 -1 3 0 0 Z " fill="#6B3225" transform="translate(62,39)"/>
<path d="M0 0 C3.96 0 7.92 0 12 0 C11.67 1.65 11.34 3.3 11 5 C8.9375 6.3125 8.9375 6.3125 7 7 C7 6.01 7 5.02 7 4 C6.67 3.34 6.34 2.68 6 2 C2.97065509 1.34227572 2.97065509 1.34227572 0 1 C0 0.67 0 0.34 0 0 Z " fill="#FEC3A6" transform="translate(82,39)"/>
<path d="M0 0 C-0.33 0.99 -0.66 1.98 -1 3 C-3.97 3 -6.94 3 -10 3 C-10 2.01 -10 1.02 -10 0 C-2.25 -1.125 -2.25 -1.125 0 0 Z " fill="#4482A5" transform="translate(103,144)"/>
<path d="M0 0 C0.33 0.66 0.66 1.32 1 2 C1.66 2 2.32 2 3 2 C3.33 1.34 3.66 0.68 4 0 C4.99 0.66 5.98 1.32 7 2 C6.67 3.32 6.34 4.64 6 6 C3.03 5.505 3.03 5.505 0 5 C0 3.35 0 1.7 0 0 Z " fill="#F5BE9B" transform="translate(58,102)"/>
<path d="M0 0 C0.99 0.33 1.98 0.66 3 1 C3 1.66 3 2.32 3 3 C5.97 3 8.94 3 12 3 C12.33 2.01 12.66 1.02 13 0 C13.99 0.33 14.98 0.66 16 1 C14.2320661 3.45973412 12.8505604 4.82651024 9.8359375 5.44140625 C7.41182906 5.56379609 5.36803117 5.54267381 3 5 C0.9375 2.5 0.9375 2.5 0 0 Z " fill="#3B7C86" transform="translate(79,79)"/>
<path d="M0 0 C2.05078125 0.03255208 4.1015625 0.06510417 6.15234375 0.09765625 C6.15234375 0.75765625 6.15234375 1.41765625 6.15234375 2.09765625 C6.81234375 2.42765625 7.47234375 2.75765625 8.15234375 3.09765625 C4.19234375 3.09765625 0.23234375 3.09765625 -3.84765625 3.09765625 C-2.36122845 0.12480066 -2.36122845 0.12480066 0 0 Z " fill="#ED3B36" transform="translate(99.84765625,153.90234375)"/>
<path d="M0 0 C2.00720923 0.28674418 4.0085944 0.61866701 6 1 C4.02 3.31 2.04 5.62 0 8 C-0.66 7.67 -1.32 7.34 -2 7 C-2 6.34 -2 5.68 -2 5 C-1.34 5 -0.68 5 0 5 C-0.2784375 4.0409375 -0.2784375 4.0409375 -0.5625 3.0625 C-0.7790625 2.0415625 -0.7790625 2.0415625 -1 1 C-0.67 0.67 -0.34 0.34 0 0 Z " fill="#DDF4FA" transform="translate(66,75)"/>
<path d="M0 0 C2.64 0 5.28 0 8 0 C6.25 3.875 6.25 3.875 4 5 C2.00039988 5.039992 -0.00047242 5.04346799 -2 5 C-1.34 4.67 -0.68 4.34 0 4 C0 2.68 0 1.36 0 0 Z " fill="#440605" transform="translate(83,67)"/>
<path d="M0 0 C1.65 0 3.3 0 5 0 C6.59138085 4.17737474 7.21278058 7.53160785 7 12 C6.01 12 5.02 12 4 12 C4 8.37 4 4.74 4 1 C2.68 0.67 1.36 0.34 0 0 Z " fill="#2C94B4" transform="translate(96,99)"/>
<path d="M0 0 C1.32 0.99 2.64 1.98 4 3 C2.65289578 7.04131267 0.61571666 7.90288434 -3 10 C-3.99 10 -4.98 10 -6 10 C-6 9.34 -6 8.68 -6 8 C-4.02 7.34 -2.04 6.68 0 6 C0 4.02 0 2.04 0 0 Z " fill="#3598A8" transform="translate(107,83)"/>
<path d="M0 0 C0.99 0.33 1.98 0.66 3 1 C1 4 -1 7 -3 10 C-3.75 7.25 -3.75 7.25 -4 4 C-2.0625 1.625 -2.0625 1.625 0 0 Z " fill="#F5EAE0" transform="translate(64,32)"/>
<path d="M0 0 C1.32 0 2.64 0 4 0 C4 1.98 4 3.96 4 6 C3.01 6.33 2.02 6.66 1 7 C0.34 5.02 -0.32 3.04 -1 1 C-0.67 0.67 -0.34 0.34 0 0 Z " fill="#FEF7FD" transform="translate(86,148)"/>
<path d="M0 0 C5.94 0.99 5.94 0.99 12 2 C11.34 3.65 10.68 5.3 10 7 C9.67 6.01 9.34 5.02 9 4 C6.03 4 3.06 4 0 4 C0 2.68 0 1.36 0 0 Z " fill="#053453" transform="translate(72,112)"/>
<path d="M0 0 C1.98 0.66 3.96 1.32 6 2 C6 2.66 6 3.32 6 4 C6.66 4.33 7.32 4.66 8 5 C1.25 5.125 1.25 5.125 -1 4 C-0.67 2.68 -0.34 1.36 0 0 Z " fill="#17A6DD" transform="translate(77,82)"/>
<path d="M0 0 C2.97851562 0.390625 2.97851562 0.390625 5.95703125 0.78125 C8.15471706 1.053233 8.15471706 1.053233 11 1 C10.67 1.66 10.34 2.32 10 3 C6.625 3.8125 6.625 3.8125 3 4 C1.0625 2.625 1.0625 2.625 0 1 C0 0.67 0 0.34 0 0 Z " fill="#C4B7AC" transform="translate(81,79)"/>
<path d="M0 0 C2.02045442 0.60183749 4.02111039 1.27306096 6 2 C6.33 2.66 6.66 3.32 7 4 C5.783125 3.9175 4.56625 3.835 3.3125 3.75 C-0.16639526 3.72528316 -0.93832664 3.95888443 -4 6 C-4.66 6.66 -5.32 7.32 -6 8 C-4.55746343 4.63408134 -2.66735273 2.48952921 0 0 Z " fill="#3F9AAF" transform="translate(72,76)"/>
<path d="M0 0 C1.32 0 2.64 0 4 0 C4.33 0.66 4.66 1.32 5 2 C6.32 1.67 7.64 1.34 9 1 C8.1875 3.4375 8.1875 3.4375 7 6 C6.01 6.33 5.02 6.66 4 7 C2.55477766 5.55477766 1.88732901 3.83011609 1 2 C0.67 1.34 0.34 0.68 0 0 Z " fill="#FBD1B5" transform="translate(79,54)"/>
<path d="M0 0 C-0.33 0.99 -0.66 1.98 -1 3 C-7.6 2.67 -14.2 2.34 -21 2 C-21 1.67 -21 1.34 -21 1 C-18.25008168 0.83188272 -15.50007888 0.6654519 -12.75 0.5 C-11.97269531 0.45230469 -11.19539063 0.40460938 -10.39453125 0.35546875 C-9.26337891 0.28779297 -9.26337891 0.28779297 -8.109375 0.21875 C-7.41811523 0.17685547 -6.72685547 0.13496094 -6.01464844 0.09179688 C-4.01161035 0.00052902 -2.0051163 0 0 0 Z " fill="#86DDF5" transform="translate(100,88)"/>
<path d="M0 0 C3 0 3 0 4.6875 1.375 C6 3 6 3 6 5 C7.98 5 9.96 5 12 5 C11.67 5.99 11.34 6.98 11 8 C9.53510951 7.43333454 8.07821997 6.84595772 6.625 6.25 C5.81289062 5.92515625 5.00078125 5.6003125 4.1640625 5.265625 C1.66684861 3.80516056 1.01755741 2.66130399 0 0 Z " fill="#F5CFBD" transform="translate(59,66)"/>
<path d="M0 0 C1.32 0.33 2.64 0.66 4 1 C4 2.65 4 4.3 4 6 C2.35 6 0.7 6 -1 6 C-1.33 5.01 -1.66 4.02 -2 3 C-1.34 2.67 -0.68 2.34 0 2 C0 1.34 0 0.68 0 0 Z " fill="#5D392A" transform="translate(94,54)"/>
<path d="M0 0 C0.33 0.99 0.66 1.98 1 3 C1.66 3 2.32 3 3 3 C3.33 2.01 3.66 1.02 4 0 C4.33 1.32 4.66 2.64 5 4 C5.66 4 6.32 4 7 4 C7.33 3.01 7.66 2.02 8 1 C8 2.65 8 4.3 8 6 C5.36 5.67 2.72 5.34 0 5 C0 3.35 0 1.7 0 0 Z " fill="#18415E" transform="translate(73,138)"/>
<path d="M0 0 C1.65 0.33 3.3 0.66 5 1 C4.67 2.32 4.34 3.64 4 5 C2.35 5 0.7 5 -1 5 C-0.67 3.35 -0.34 1.7 0 0 Z " fill="#5B3428" transform="translate(76,55)"/>
<path d="M0 0 C1.65 1.32 3.3 2.64 5 4 C4.67 5.65 4.34 7.3 4 9 C1 5.25 1 5.25 1 3 C0.01 3.33 -0.98 3.66 -2 4 C-2.33 3.34 -2.66 2.68 -3 2 C-2.01 1.34 -1.02 0.68 0 0 Z " fill="#60291A" transform="translate(106,33)"/>
<path d="M0 0 C0.66 0 1.32 0 2 0 C2 0.66 2 1.32 2 2 C2.99 2 3.98 2 5 2 C6.09658936 5.28976808 5.79953138 6.71303767 5 10 C4.34 9.01 3.68 8.02 3 7 C2.01 7.495 2.01 7.495 1 8 C0.67 5.36 0.34 2.72 0 0 Z " fill="#E4D0C3" transform="translate(101,20)"/>
<path d="M0 0 C2.1640625 -0.29296875 2.1640625 -0.29296875 4.625 -0.1875 C5.44226563 -0.16042969 6.25953125 -0.13335937 7.1015625 -0.10546875 C8.04128906 -0.05326172 8.04128906 -0.05326172 9 0 C9.33 0.99 9.66 1.98 10 3 C6.04 3 2.08 3 -2 3 C-1.34 2.01 -0.68 1.02 0 0 Z " fill="#BA705A" transform="translate(82,72)"/>
<path d="M0 0 C0.33 0.99 0.66 1.98 1 3 C-1.31 3.66 -3.62 4.32 -6 5 C-6.33 4.01 -6.66 3.02 -7 2 C-4.69 1.34 -2.38 0.68 0 0 Z " fill="#FAFAF0" transform="translate(111,146)"/>
<path d="M0 0 C0.99 0 1.98 0 3 0 C3 0.66 3 1.32 3 2 C4.32 2 5.64 2 7 2 C7 3.98 7 5.96 7 8 C6.67 8 6.34 8 6 8 C6 6.35 6 4.7 6 3 C4.68 3 3.36 3 2 3 C1.67 3.66 1.34 4.32 1 5 C0.34 4.67 -0.32 4.34 -1 4 C-0.67 2.68 -0.34 1.36 0 0 Z " fill="#405C73" transform="translate(83,115)"/>
<path d="M0 0 C0 0.66 0 1.32 0 2 C-1.65 2.33 -3.3 2.66 -5 3 C-5.33 3.99 -5.66 4.98 -6 6 C-7.32 5.34 -8.64 4.68 -10 4 C-9.34 4 -8.68 4 -8 4 C-7.67 3.34 -7.34 2.68 -7 2 C-4 0 -4 0 0 0 Z " fill="#F5BCA8" transform="translate(95,75)"/>
<path d="M0 0 C3.3 0.33 6.6 0.66 10 1 C9.67 1.66 9.34 2.32 9 3 C9 3.66 9 4.32 9 5 C7.35 4.67 5.7 4.34 4 4 C4 3.34 4 2.68 4 2 C2.68 2 1.36 2 0 2 C0 1.34 0 0.68 0 0 Z " fill="#F6BDA4" transform="translate(76,74)"/>
<path d="M0 0 C0.66 0 1.32 0 2 0 C2.625 1.875 2.625 1.875 3 4 C2.34 4.66 1.68 5.32 1 6 C-0.32 6 -1.64 6 -3 6 C-2.67 4.68 -2.34 3.36 -2 2 C-1.34 2 -0.68 2 0 2 C0 1.34 0 0.68 0 0 Z " fill="#761C0A" transform="translate(95,69)"/>
<path d="M0 0 C0.66 0.33 1.32 0.66 2 1 C1 4 1 4 -1 5 C-1.33 5.99 -1.66 6.98 -2 8 C-2.99 7.34 -3.98 6.68 -5 6 C-5 5.34 -5 4.68 -5 4 C-3.37373596 2.61767557 -1.7074998 1.28062485 0 0 Z " fill="#6B3325" transform="translate(73,28)"/>
<path d="M0 0 C0.598125 0.20625 1.19625 0.4125 1.8125 0.625 C1.8125 1.285 1.8125 1.945 1.8125 2.625 C-0.85416667 3.95833333 -3.52083333 5.29166667 -6.1875 6.625 C-5.875 4.25 -5.875 4.25 -5.1875 1.625 C-2.1875 -0.375 -2.1875 -0.375 0 0 Z " fill="#F5E5DF" transform="translate(76.1875,24.375)"/>
<path d="M0 0 C0.33 1.32 0.66 2.64 1 4 C2.65 4 4.3 4 6 4 C5.01 4.33 4.02 4.66 3 5 C3.33 6.32 3.66 7.64 4 9 C2.68 9 1.36 9 0 9 C-0.84454356 5.62182575 -1.10844919 3.32534757 0 0 Z " fill="#84D0E3" transform="translate(72,89)"/>
<path d="M0 0 C5.53846154 0.61538462 5.53846154 0.61538462 7.875 2.5625 C8.431875 3.2740625 8.431875 3.2740625 9 4 C3.48 4.368 3.48 4.368 1.125 2.5625 C0 1 0 1 0 0 Z " fill="#FDF6F3" transform="translate(64,72)"/>
<path d="M0 0 C0.66 0 1.32 0 2 0 C2 0.66 2 1.32 2 2 C2.66 2 3.32 2 4 2 C4.33 2.99 4.66 3.98 5 5 C3.02 5.99 3.02 5.99 1 7 C0 6 0 6 -0.0625 2.9375 C-0.041875 1.968125 -0.02125 0.99875 0 0 Z " fill="#732111" transform="translate(75,67)"/>
<path d="M0 0 C0.66 0.99 1.32 1.98 2 3 C1.67 3.66 1.34 4.32 1 5 C-0.32 4.67 -1.64 4.34 -3 4 C-3 4.99 -3 5.98 -3 7 C-3.66 7 -4.32 7 -5 7 C-5.33 6.01 -5.66 5.02 -6 4 C-4.02 2.68 -2.04 1.36 0 0 Z " fill="#C9CFC0" transform="translate(111,87)"/>
<path d="M0 0 C0.66 0.33 1.32 0.66 2 1 C1.6875 2.875 1.6875 2.875 1 5 C-2 7 -2 7 -5 7 C-4.67 6.01 -4.34 5.02 -4 4 C-3.34 4 -2.68 4 -2 4 C-1.34 2.68 -0.68 1.36 0 0 Z " fill="#18A8D1" transform="translate(106,84)"/>
<path d="M0 0 C0.8353125 0.37125 0.8353125 0.37125 1.6875 0.75 C-0.5625 2.8125 -0.5625 2.8125 -3.3125 4.75 C-5.625 4.5 -5.625 4.5 -7.3125 3.75 C-2.88173077 -0.31153846 -2.88173077 -0.31153846 0 0 Z " fill="#671E14" transform="translate(95.3125,65.25)"/>
<path d="M0 0 C0.99 0 1.98 0 3 0 C3 1.98 3 3.96 3 6 C1.68 6.33 0.36 6.66 -1 7 C-0.67 4.69 -0.34 2.38 0 0 Z " fill="#D29069" transform="translate(107,61)"/>
<path d="M0 0 C2.97 0.495 2.97 0.495 6 1 C6 1.99 6 2.98 6 4 C5.01 4.495 5.01 4.495 4 5 C2 3.625 2 3.625 0 2 C0 1.34 0 0.68 0 0 Z " fill="#F5C19E" transform="translate(74,47)"/>
<path d="M0 0 C0 0.66 0 1.32 0 2 C-1.65 2.66 -3.3 3.32 -5 4 C-4.67 4.99 -4.34 5.98 -4 7 C-4.66 7 -5.32 7 -6 7 C-6 5.02 -6 3.04 -6 1 C-3 0 -3 0 0 0 Z " fill="#F8E4DF" transform="translate(64,153)"/>
<path d="M0 0 C0.33 0.99 0.66 1.98 1 3 C1.99 2.67 2.98 2.34 4 2 C4 2.99 4 3.98 4 5 C3.34 5 2.68 5 2 5 C2 5.66 2 6.32 2 7 C1.34 7 0.68 7 0 7 C-0.33 7.66 -0.66 8.32 -1 9 C-0.67 6.03 -0.34 3.06 0 0 Z " fill="#304E6A" transform="translate(91,119)"/>
<path d="M0 0 C2 1 2 1 4 4 C3.01 4.66 2.02 5.32 1 6 C-0.32 5.01 -1.64 4.02 -3 3 C-2.01 2.01 -1.02 1.02 0 0 Z " fill="#5E2715" transform="translate(67,33)"/>
<path d="M0 0 C0.66 0.66 1.32 1.32 2 2 C1.67 2.66 1.34 3.32 1 4 C1.66 4.33 2.32 4.66 3 5 C1.35 5.33 -0.3 5.66 -2 6 C-2 5.01 -2 4.02 -2 3 C-2.66 2.34 -3.32 1.68 -4 1 C-2.125 0.375 -2.125 0.375 0 0 Z " fill="#E9C1A4" transform="translate(80,59)"/>
<path d="M0 0 C0 0.33 0 0.66 0 1 C-1.423125 1.37125 -1.423125 1.37125 -2.875 1.75 C-6.08693191 2.6857077 -6.08693191 2.6857077 -7.375 5.125 C-7.58125 5.74375 -7.7875 6.3625 -8 7 C-8 4.69 -8 2.38 -8 0 C-4.71303767 -0.79953138 -3.28976808 -1.09658936 0 0 Z " fill="#B28F77" transform="translate(79,52)"/>
<path d="M0 0 C0.66 0.33 1.32 0.66 2 1 C1.01 1.66 0.02 2.32 -1 3 C-0.34 3.66 0.32 4.32 1 5 C-1.31 5.33 -3.62 5.66 -6 6 C-4.98545548 3.4636387 -4.3146444 2.20648539 -2 0.6875 C-1.34 0.460625 -0.68 0.23375 0 0 Z " fill="#FDC7A9" transform="translate(99,40)"/>
<path d="M0 0 C0.33 0 0.66 0 1 0 C0.67 2.97 0.34 5.94 0 9 C-0.99 8.01 -1.98 7.02 -3 6 C-1.125 1.125 -1.125 1.125 0 0 Z " fill="#E4EFF5" transform="translate(70,138)"/>
<path d="M0 0 C1.98 1.65 3.96 3.3 6 5 C5.34 5.66 4.68 6.32 4 7 C1.525 6.01 1.525 6.01 -1 5 C-0.67 3.35 -0.34 1.7 0 0 Z " fill="#C3C9BA" transform="translate(62,86)"/>
<path d="M0 0 C2.375 -0.125 2.375 -0.125 5 0 C5.66 0.66 6.32 1.32 7 2 C6.625 4.625 6.625 4.625 6 7 C5.62875 6.1028125 5.62875 6.1028125 5.25 5.1875 C3.83629988 2.71352479 2.34944617 1.56629745 0 0 Z " fill="#FEF0DF" transform="translate(94,53)"/>
<path d="M0 0 C0.33 0 0.66 0 1 0 C1.33 3.63 1.66 7.26 2 11 C1.01 10.67 0.02 10.34 -1 10 C-0.67 6.7 -0.34 3.4 0 0 Z " fill="#7A98A7" transform="translate(103,136)"/>
<path d="M0 0 C0.99 0.66 1.98 1.32 3 2 C2.67 2.66 2.34 3.32 2 4 C2.66 4.33 3.32 4.66 4 5 C1.04335481 6.4783226 -1.74229737 6.06032783 -5 6 C-5 5.67 -5 5.34 -5 5 C-3.35 4.67 -1.7 4.34 0 4 C0 2.68 0 1.36 0 0 Z " fill="#2CABD4" transform="translate(96,107)"/>
<path d="M0 0 C1.5625 1.8125 1.5625 1.8125 3 4 C2.67 4.99 2.34 5.98 2 7 C1.01 6.67 0.02 6.34 -1 6 C-1.8125 4.0625 -1.8125 4.0625 -2 2 C-1.34 1.34 -0.68 0.68 0 0 Z " fill="#26AAD7" transform="translate(69,81)"/>
<path d="M0 0 C2.375 0.25 2.375 0.25 5 1 C6.3125 3.0625 6.3125 3.0625 7 5 C4.36 4.34 1.72 3.68 -1 3 C-0.67 2.01 -0.34 1.02 0 0 Z " fill="#28A0C6" transform="translate(75,79)"/>
<path d="M0 0 C0.33 0.66 0.66 1.32 1 2 C2.32 2 3.64 2 5 2 C5.33 2.99 5.66 3.98 6 5 C2.31245243 4.50168276 0.39509338 3.89932357 -2 1 C-1.34 0.67 -0.68 0.34 0 0 Z " fill="#D7CEC6" transform="translate(75,74)"/>
<path d="M0 0 C0.33 0 0.66 0 1 0 C1.33 3.3 1.66 6.6 2 10 C1.01 9.67 0.02 9.34 -1 9 C-1.09765625 2.84765625 -1.09765625 2.84765625 -1 1 C-0.67 0.67 -0.34 0.34 0 0 Z " fill="#C78D66" transform="translate(64,58)"/>
<path d="M0 0 C0.66 0 1.32 0 2 0 C2.33 0.99 2.66 1.98 3 3 C2.01 3.495 2.01 3.495 1 4 C1.33 5.32 1.66 6.64 2 8 C1.01 7.34 0.02 6.68 -1 6 C-1.25 3.4375 -1.25 3.4375 -1 1 C-0.67 0.67 -0.34 0.34 0 0 Z " fill="#F4DCC2" transform="translate(92,54)"/>
</svg>
